<svg width="1017" height="621" viewBox="0 0 1017 621" fill="none" xmlns="http://www.w3.org/2000/svg">
<path d="M609.741 259.47C639.786 311.482 654.809 365.516 654.87 410.787C654.931 456.103 640.026 492.322 610.613 509.294C581.2 526.267 542.365 521.058 503.129 498.347C463.932 475.659 424.624 435.639 394.578 383.627C364.533 331.615 349.51 277.581 349.449 232.31C349.388 186.994 364.293 150.775 393.706 133.803C423.119 116.831 461.954 122.039 501.19 144.75C540.387 167.438 579.695 207.458 609.741 259.47Z" stroke="url(#paint0_linear_54_6993)" stroke-width="2.91151"/>
<path d="M684.544 216.306C709.765 259.967 722.348 305.327 722.366 343.326C722.384 381.37 709.833 411.719 685.176 425.947C660.52 440.174 627.947 435.864 594.991 416.826C562.074 397.811 529.062 364.239 503.841 320.578C478.619 276.917 466.036 231.557 466.018 193.558C466 155.515 478.551 125.165 503.208 110.937C527.864 96.7097 560.437 101.02 593.393 120.058C626.31 139.073 659.322 172.645 684.544 216.306Z" stroke="url(#paint1_linear_54_6993)" stroke-width="2.91151"/>
<path d="M752.622 177.022C772.216 210.939 781.962 246.176 781.942 275.683C781.923 305.235 772.134 328.727 753.046 339.742C733.958 350.756 708.708 347.482 683.092 332.723C657.515 317.987 631.856 291.933 612.263 258.015C592.669 224.097 582.923 188.861 582.943 159.353C582.962 129.802 592.751 106.309 611.839 95.2947C630.926 84.2803 656.177 87.5541 681.793 102.313C707.37 117.05 733.029 143.104 752.622 177.022Z" stroke="url(#paint2_linear_54_6993)" stroke-width="2.91151"/>
<path d="M798.008 150.832C812.107 175.239 819.09 200.588 819.045 221.8C819 243.055 811.924 259.845 798.288 267.714C784.653 275.582 766.566 273.311 748.126 262.723C729.724 252.156 711.25 233.437 697.151 209.031C683.052 184.624 676.069 159.275 676.115 138.063C676.16 116.808 683.236 100.017 696.871 92.1491C710.507 84.2807 728.594 86.5517 747.034 97.1398C765.436 107.707 783.91 126.426 798.008 150.832Z" stroke="url(#paint3_linear_54_6993)" stroke-width="2.91151"/>
<path d="M831.628 131.433C841.304 148.184 846.071 165.571 846.018 180.098C845.966 194.667 841.092 206.054 831.863 211.379C822.635 216.704 810.332 215.229 797.681 207.99C785.067 200.772 772.385 187.952 762.709 171.202C753.032 154.451 748.265 137.064 748.318 122.536C748.371 107.968 753.245 96.5807 762.473 91.2557C771.701 85.9306 784.005 87.4053 796.655 94.6441C809.269 101.862 821.951 114.682 831.628 131.433Z" stroke="url(#paint4_linear_54_6993)" stroke-width="2.91151"/>
<path d="M101.25 550.738C100.532 551.152 100.286 552.069 100.701 552.786C101.115 553.504 102.032 553.75 102.75 553.336L101.25 550.738ZM993 38.3141L975.676 38.306L984.335 53.307L993 38.3141ZM102.75 553.336L982.055 46.3564L980.555 43.7581L101.25 550.738L102.75 553.336Z" fill="url(#paint5_linear_54_6993)"/>
<path d="M224.572 498.193C224.761 499.477 224.889 500.78 224.953 502.1L223.954 502.148C223.984 502.783 224 503.421 224 504.063C224 504.705 223.984 505.343 223.954 505.978L224.953 506.026C224.889 507.346 224.761 508.649 224.572 509.933L223.583 509.787C223.395 511.059 223.146 512.312 222.839 513.54L223.81 513.783C223.49 515.06 223.11 516.313 222.671 517.539L221.729 517.202C221.297 518.408 220.807 519.587 220.263 520.735L221.166 521.164C220.604 522.35 219.985 523.504 219.312 524.623L218.455 524.108C217.796 525.203 217.085 526.264 216.325 527.287L217.128 527.883C216.346 528.935 215.514 529.946 214.635 530.915L213.894 530.243C213.036 531.188 212.133 532.091 211.187 532.948L211.858 533.689C210.889 534.567 209.877 535.399 208.825 536.179L208.229 535.376C207.206 536.136 206.144 536.846 205.048 537.504L205.563 538.362C204.444 539.033 203.289 539.652 202.102 540.213L201.674 539.31C200.526 539.853 199.347 540.343 198.14 540.774L198.477 541.716C197.251 542.154 195.998 542.534 194.72 542.853L194.478 541.883C193.249 542.189 191.997 542.438 190.724 542.625L190.87 543.614C189.586 543.803 188.283 543.93 186.963 543.994L186.915 542.995C186.28 543.026 185.642 543.041 185 543.041C184.358 543.041 183.72 543.026 183.085 542.995L183.037 543.994C181.717 543.93 180.414 543.803 179.13 543.614L179.276 542.625C178.003 542.438 176.751 542.189 175.522 541.883L175.28 542.853C174.002 542.534 172.749 542.154 171.523 541.716L171.86 540.774C170.653 540.343 169.474 539.853 168.326 539.31L167.898 540.213C166.711 539.652 165.556 539.033 164.437 538.362L164.952 537.504C163.856 536.846 162.794 536.136 161.771 535.376L161.175 536.179C160.123 535.399 159.111 534.567 158.142 533.689L158.813 532.948C157.867 532.091 156.964 531.188 156.106 530.243L155.365 530.915C154.486 529.946 153.654 528.935 152.872 527.883L153.675 527.287C152.915 526.264 152.204 525.203 151.545 524.108L150.688 524.623C150.015 523.504 149.396 522.35 148.834 521.164L149.737 520.735C149.193 519.587 148.703 518.408 148.271 517.202L147.329 517.539C146.89 516.313 146.51 515.06 146.19 513.783L147.161 513.54C146.854 512.312 146.605 511.059 146.417 509.787L145.428 509.933C145.239 508.649 145.111 507.346 145.047 506.026L146.046 505.978C146.016 505.343 146 504.705 146 504.063C146 503.421 146.016 502.783 146.046 502.148L145.047 502.1C145.111 500.78 145.239 499.477 145.428 498.193L146.417 498.339C146.605 497.067 146.854 495.815 147.161 494.586L146.19 494.343C146.51 493.066 146.89 491.813 147.329 490.587L148.271 490.924C148.703 489.718 149.193 488.539 149.737 487.391L148.834 486.962C149.396 485.776 150.015 484.622 150.688 483.503L151.545 484.019C152.204 482.923 152.915 481.862 153.675 480.839L152.872 480.243C153.654 479.191 154.486 478.18 155.365 477.211L156.106 477.883C156.964 476.938 157.867 476.035 158.813 475.178L158.142 474.437C159.111 473.559 160.123 472.728 161.175 471.947L161.771 472.75C162.794 471.99 163.856 471.28 164.952 470.622L164.437 469.764C165.556 469.093 166.711 468.474 167.898 467.913L168.326 468.816C169.474 468.273 170.653 467.783 171.86 467.352L171.523 466.41C172.749 465.972 174.002 465.592 175.28 465.273L175.522 466.243C176.751 465.937 178.003 465.688 179.276 465.501L179.13 464.512C180.414 464.323 181.717 464.196 183.037 464.132L183.085 465.131C183.72 465.1 184.358 465.085 185 465.085C185.642 465.085 186.28 465.1 186.915 465.131L186.963 464.132C188.283 464.196 189.586 464.323 190.87 464.512L190.724 465.501C191.997 465.688 193.249 465.937 194.478 466.243L194.72 465.273C195.998 465.592 197.251 465.972 198.477 466.41L198.14 467.352C199.347 467.783 200.526 468.273 201.674 468.816L202.102 467.913C203.289 468.474 204.444 469.093 205.563 469.764L205.048 470.622C206.144 471.28 207.206 471.99 208.229 472.75L208.825 471.947C209.877 472.728 210.889 473.559 211.858 474.437L211.187 475.178C212.133 476.035 213.036 476.938 213.894 477.883L214.635 477.211C215.514 478.18 216.346 479.191 217.128 480.243L216.325 480.839C217.085 481.862 217.796 482.923 218.455 484.019L219.312 483.503C219.985 484.622 220.604 485.776 221.166 486.962L220.263 487.391C220.807 488.539 221.297 489.718 221.729 490.924L222.671 490.587C223.11 491.813 223.49 493.066 223.81 494.343L222.839 494.586C223.146 495.815 223.395 497.067 223.583 498.339L224.572 498.193Z" stroke="white" stroke-opacity="0.7" stroke-width="2" stroke-dasharray="4 4"/>
<ellipse cx="184.5" cy="503.563" rx="14.5" ry="14.4922" fill="#A41D1D"/>
<path d="M301.849 497.548C301.916 498.876 301.961 500.21 301.983 501.55L301.483 501.558C301.494 502.225 301.5 502.894 301.5 503.563C301.5 504.233 301.494 504.901 301.483 505.568L301.983 505.577C301.961 506.916 301.916 508.25 301.849 509.579L301.349 509.554C301.282 510.89 301.192 512.221 301.08 513.546L301.578 513.588C301.465 514.924 301.329 516.255 301.172 517.578L300.675 517.519C300.518 518.844 300.338 520.161 300.137 521.472L300.631 521.548C300.427 522.874 300.201 524.194 299.952 525.506L299.461 525.413C299.213 526.725 298.943 528.029 298.652 529.325L299.139 529.434C298.846 530.741 298.53 532.039 298.193 533.329L297.709 533.203C297.371 534.494 297.012 535.777 296.632 537.051L297.111 537.194C296.728 538.478 296.323 539.753 295.897 541.018L295.423 540.859C294.998 542.123 294.552 543.377 294.085 544.62L294.553 544.796C294.083 546.05 293.592 547.294 293.08 548.527L292.618 548.335C292.107 549.567 291.575 550.789 291.023 551.999L291.478 552.206C290.923 553.424 290.347 554.631 289.752 555.827L289.304 555.604C288.71 556.796 288.096 557.978 287.463 559.147L287.903 559.385C287.265 560.562 286.608 561.728 285.932 562.88L285.5 562.627C284.826 563.777 284.133 564.914 283.421 566.038L283.843 566.305C283.127 567.435 282.392 568.552 281.639 569.656L281.226 569.374C280.475 570.475 279.706 571.562 278.918 572.635L279.321 572.931C278.53 574.01 277.721 575.074 276.894 576.125L276.501 575.815C275.677 576.862 274.836 577.894 273.977 578.911L274.359 579.234C273.497 580.256 272.617 581.263 271.721 582.255L271.35 581.92C270.457 582.908 269.547 583.88 268.621 584.837L268.981 585.185C268.051 586.146 267.105 587.091 266.143 588.02L265.796 587.661C264.838 588.586 263.864 589.495 262.876 590.387L263.211 590.758C262.218 591.654 261.21 592.533 260.187 593.394L259.865 593.012C258.847 593.87 257.814 594.71 256.767 595.533L257.076 595.926C256.025 596.752 254.96 597.561 253.88 598.351L253.585 597.948C252.511 598.735 251.423 599.503 250.322 600.253L250.604 600.667C249.5 601.419 248.382 602.153 247.251 602.868L246.984 602.446C245.86 603.157 244.722 603.849 243.573 604.523L243.825 604.954C242.672 605.63 241.506 606.286 240.328 606.923L240.091 606.483C238.921 607.116 237.739 607.729 236.546 608.322L236.769 608.77C235.573 609.364 234.366 609.939 233.147 610.494L232.94 610.039C231.73 610.59 230.508 611.121 229.276 611.631L229.467 612.093C228.234 612.604 226.99 613.095 225.735 613.565L225.56 613.097C224.316 613.563 223.062 614.008 221.798 614.433L221.957 614.907C220.692 615.332 219.417 615.736 218.132 616.119L217.989 615.64C216.715 616.019 215.432 616.378 214.14 616.715L214.267 617.199C212.977 617.535 211.678 617.851 210.372 618.144L210.262 617.656C208.966 617.947 207.662 618.217 206.35 618.464L206.443 618.956C205.131 619.203 203.811 619.429 202.484 619.633L202.409 619.139C201.098 619.34 199.78 619.519 198.456 619.677L198.515 620.173C197.191 620.331 195.861 620.466 194.525 620.579L194.482 620.08C193.158 620.192 191.827 620.282 190.49 620.349L190.515 620.849C189.187 620.916 187.853 620.961 186.513 620.983L186.505 620.483C185.838 620.494 185.17 620.5 184.5 620.5C183.83 620.5 183.162 620.494 182.495 620.483L182.487 620.983C181.147 620.961 179.813 620.916 178.485 620.849L178.51 620.349C177.173 620.282 175.842 620.192 174.518 620.08L174.476 620.579C173.139 620.466 171.809 620.331 170.485 620.173L170.544 619.677C169.22 619.519 167.902 619.34 166.591 619.139L166.516 619.633C165.189 619.429 163.869 619.203 162.557 618.956L162.65 618.464C161.338 618.217 160.034 617.947 158.738 617.656L158.628 618.144C157.322 617.851 156.023 617.535 154.733 617.199L154.86 616.715C153.568 616.378 152.285 616.019 151.011 615.64L150.868 616.119C149.583 615.736 148.308 615.332 147.043 614.907L147.202 614.433C145.938 614.008 144.684 613.563 143.44 613.097L143.265 613.565C142.01 613.095 140.766 612.604 139.533 612.093L139.724 611.631C138.492 611.121 137.27 610.59 136.06 610.039L135.853 610.494C134.634 609.939 133.427 609.364 132.231 608.77L132.454 608.322C131.261 607.729 130.079 607.116 128.909 606.483L128.672 606.923C127.494 606.286 126.328 605.63 125.175 604.954L125.427 604.523C124.278 603.849 123.14 603.157 122.016 602.445L121.749 602.868C120.618 602.153 119.5 601.419 118.396 600.667L118.678 600.253C117.576 599.503 116.489 598.735 115.415 597.948L115.12 598.351C114.04 597.561 112.975 596.752 111.924 595.926L112.233 595.533C111.186 594.71 110.153 593.87 109.135 593.012L108.813 593.394C107.79 592.533 106.782 591.654 105.789 590.758L106.124 590.387C105.136 589.495 104.162 588.586 103.204 587.661L102.857 588.02C101.895 587.091 100.949 586.146 100.019 585.185L100.379 584.837C99.4529 583.88 98.5433 582.908 97.6504 581.92L97.2794 582.255C96.383 581.263 95.5033 580.256 94.6407 579.234L95.0228 578.911C94.1644 577.894 93.323 576.862 92.4991 575.815L92.1062 576.125C91.2793 575.074 90.47 574.009 89.6786 572.931L90.0817 572.635C89.2945 571.562 88.5251 570.475 87.774 569.374L87.361 569.656C86.6079 568.552 85.8731 567.435 85.157 566.305L85.5794 566.038C84.8673 564.914 84.1739 563.777 83.4996 562.627L83.0683 562.88C82.392 561.728 81.7348 560.562 81.0971 559.385L81.5368 559.147C80.9036 557.978 80.2897 556.796 79.6957 555.604L79.2481 555.827C78.6528 554.631 78.0772 553.424 77.5219 552.206L77.9769 551.999C77.4251 550.789 76.8933 549.567 76.3821 548.335L75.9203 548.527C75.4085 547.294 74.9171 546.05 74.4465 544.796L74.9147 544.62C74.4479 543.377 74.0017 542.123 73.5766 540.859L73.1027 541.018C72.677 539.753 72.2722 538.478 71.8889 537.194L72.368 537.051C71.9877 535.777 71.6286 534.494 71.291 533.203L70.8072 533.329C70.4701 532.039 70.1544 530.741 69.8605 529.434L70.3483 529.325C70.0568 528.029 69.7869 526.725 69.5388 525.413L69.0475 525.506C68.7994 524.194 68.5732 522.875 68.3692 521.548L68.8634 521.472C68.6619 520.161 68.4821 518.844 68.3246 517.519L67.8281 517.578C67.6706 516.255 67.5351 514.924 67.4221 513.588L67.9203 513.546C67.8083 512.221 67.7183 510.89 67.6508 509.554L67.1515 509.579C67.0844 508.25 67.0395 506.916 67.0169 505.577L67.5169 505.568C67.5056 504.901 67.5 504.233 67.5 503.563C67.5 502.894 67.5056 502.225 67.5168 501.558L67.0169 501.55C67.0395 500.21 67.0844 498.876 67.1515 497.548L67.6508 497.573C67.7183 496.236 67.8083 494.906 67.9203 493.581L67.4221 493.539C67.5351 492.202 67.6706 490.872 67.8281 489.549L68.3245 489.608C68.4821 488.283 68.6619 486.966 68.8634 485.655L68.3692 485.579C68.5732 484.252 68.7994 482.933 69.0475 481.621L69.5388 481.714C69.7869 480.402 70.0568 479.098 70.3483 477.802L69.8605 477.692C70.1544 476.386 70.4701 475.087 70.8072 473.798L71.291 473.924C71.6286 472.632 71.9877 471.35 72.368 470.076L71.8889 469.933C72.2722 468.649 72.677 467.374 73.1027 466.108L73.5766 466.268C74.0017 465.004 74.4479 463.75 74.9147 462.506L74.4466 462.331C74.9171 461.077 75.4085 459.833 75.9203 458.6L76.3821 458.791C76.8933 457.559 77.4251 456.338 77.9769 455.128L77.5219 454.92C78.0773 453.702 78.6528 452.495 79.2481 451.3L79.6957 451.523C80.2898 450.33 80.9036 449.149 81.5368 447.98L81.0972 447.742C81.7348 446.564 82.392 445.399 83.0683 444.246L83.4996 444.499C84.1739 443.35 84.8673 442.213 85.5794 441.089L85.157 440.822C85.8731 439.691 86.6079 438.574 87.361 437.471L87.774 437.753C88.5251 436.652 89.2945 435.565 90.0818 434.492L89.6786 434.196C90.47 433.117 91.2793 432.052 92.1062 431.002L92.4991 431.311C93.323 430.265 94.1644 429.233 95.0228 428.216L94.6407 427.893C95.5033 426.871 96.383 425.864 97.2794 424.872L97.6504 425.207C98.5433 424.219 99.4529 423.246 100.379 422.289L100.019 421.942C100.949 420.981 101.895 420.035 102.857 419.106L103.204 419.466C104.162 418.541 105.136 417.632 106.124 416.74L105.789 416.369C106.782 415.473 107.79 414.594 108.813 413.732L109.135 414.115C110.153 413.257 111.186 412.417 112.233 411.593L111.924 411.2C112.975 410.374 114.04 409.566 115.12 408.775L115.415 409.179C116.489 408.392 117.576 407.624 118.678 406.873L118.396 406.46C119.5 405.708 120.618 404.974 121.749 404.259L122.016 404.681C123.14 403.97 124.278 403.277 125.427 402.604L125.175 402.172C126.328 401.497 127.494 400.841 128.672 400.204L128.909 400.643C130.079 400.011 131.261 399.398 132.454 398.805L132.231 398.357C133.427 397.762 134.634 397.188 135.853 396.633L136.06 397.088C137.27 396.537 138.492 396.006 139.724 395.495L139.533 395.034C140.766 394.522 142.01 394.032 143.265 393.562L143.44 394.03C144.684 393.564 145.938 393.119 147.202 392.694L147.043 392.22C148.308 391.795 149.583 391.391 150.868 391.008L151.011 391.487C152.285 391.107 153.568 390.749 154.86 390.412L154.733 389.928C156.023 389.591 157.322 389.276 158.628 388.983L158.738 389.471C160.034 389.18 161.338 388.91 162.65 388.662L162.557 388.171C163.869 387.923 165.189 387.697 166.516 387.494L166.591 387.988C167.902 387.787 169.22 387.607 170.544 387.45L170.485 386.953C171.809 386.796 173.139 386.661 174.475 386.548L174.518 387.046C175.842 386.934 177.173 386.845 178.51 386.777L178.485 386.278C179.813 386.211 181.147 386.166 182.487 386.144L182.495 386.644C183.162 386.632 183.83 386.627 184.5 386.627C185.17 386.627 185.838 386.632 186.505 386.644L186.513 386.144C187.853 386.166 189.187 386.211 190.515 386.278L190.49 386.777C191.827 386.845 193.158 386.934 194.482 387.046L194.524 386.548C195.861 386.661 197.191 386.796 198.515 386.953L198.456 387.45C199.78 387.607 201.098 387.787 202.409 387.988L202.484 387.494C203.811 387.697 205.131 387.923 206.443 388.171L206.35 388.662C207.662 388.91 208.966 389.18 210.262 389.471L210.372 388.983C211.678 389.276 212.977 389.591 214.267 389.928L214.14 390.412C215.432 390.749 216.715 391.107 217.989 391.487L218.132 391.008C219.417 391.391 220.692 391.795 221.957 392.22L221.798 392.694C223.062 393.119 224.316 393.564 225.56 394.03L225.735 393.562C226.99 394.032 228.234 394.523 229.467 395.034L229.276 395.496C230.508 396.006 231.73 396.537 232.94 397.088L233.147 396.633C234.366 397.188 235.573 397.762 236.769 398.357L236.546 398.805C237.739 399.398 238.921 400.011 240.091 400.644L240.328 400.204C241.506 400.841 242.672 401.497 243.825 402.172L243.573 402.604C244.722 403.277 245.86 403.97 246.984 404.681L247.251 404.259C248.382 404.974 249.5 405.708 250.604 406.46L250.322 406.873C251.424 407.624 252.511 408.392 253.585 409.179L253.88 408.775C254.96 409.566 256.025 410.374 257.076 411.2L256.767 411.593C257.814 412.417 258.847 413.257 259.865 414.115L260.187 413.732C261.21 414.594 262.218 415.473 263.211 416.369L262.876 416.74C263.864 417.632 264.838 418.541 265.796 419.466L266.143 419.106C267.105 420.035 268.051 420.981 268.981 421.942L268.621 422.289C269.547 423.246 270.457 424.219 271.35 425.207L271.721 424.872C272.617 425.864 273.497 426.871 274.359 427.893L273.977 428.216C274.836 429.233 275.677 430.265 276.501 431.311L276.894 431.002C277.721 432.053 278.53 433.117 279.321 434.196L278.918 434.492C279.706 435.565 280.475 436.652 281.226 437.753L281.639 437.471C282.392 438.574 283.127 439.691 283.843 440.822L283.421 441.089C284.133 442.213 284.826 443.35 285.5 444.499L285.932 444.246C286.608 445.399 287.265 446.564 287.903 447.742L287.463 447.98C288.096 449.149 288.71 450.33 289.304 451.523L289.752 451.3C290.347 452.496 290.923 453.702 291.478 454.92L291.023 455.128C291.575 456.338 292.107 457.559 292.618 458.791L293.08 458.6C293.592 459.833 294.083 461.077 294.553 462.331L294.085 462.506C294.552 463.75 294.998 465.004 295.423 466.268L295.897 466.108C296.323 467.374 296.728 468.649 297.111 469.933L296.632 470.076C297.012 471.35 297.371 472.632 297.709 473.924L298.193 473.798C298.53 475.087 298.846 476.386 299.139 477.692L298.652 477.802C298.943 479.098 299.213 480.402 299.461 481.714L299.952 481.621C300.201 482.933 300.427 484.252 300.631 485.579L300.137 485.655C300.338 486.966 300.518 488.283 300.675 489.608L301.172 489.548C301.329 490.872 301.465 492.202 301.578 493.539L301.08 493.581C301.192 494.906 301.282 496.236 301.349 497.573L301.849 497.548Z" stroke="white" stroke-opacity="0.3" stroke-dasharray="4 4"/>
<circle cx="353" cy="197" r="4" fill="#D9D9D9"/>
<circle cx="482" cy="485" r="4" fill="#D9D9D9"/>
<circle cx="581" cy="407" r="4" fill="#D9D9D9"/>
<circle cx="818" cy="237" r="4" fill="#D9D9D9"/>
<circle cx="474" cy="251" r="4" fill="#D9D9D9"/>
<circle cx="743" cy="345" r="4" fill="#D9D9D9"/>
<circle cx="676" cy="136" r="4" fill="#D9D9D9"/>
<path d="M9.506 369.552V366.99H3.318V369.552H9.506ZM10.64 366.066V370.476H2.198V366.066H10.64ZM3.318 374.172V376.818H10.85V377.756H2.17V374.172H3.318ZM0.714 371.904H12.124V372.828H7.084V375.362H5.936V372.828H0.714V371.904ZM17.3029 367.886V369.02C17.3029 371.204 18.2409 373.388 19.9769 374.368L19.2769 375.208C18.0589 374.48 17.1909 373.136 16.7569 371.54C16.3229 373.262 15.4129 374.732 14.1669 375.516L13.4669 374.662C15.2169 373.612 16.1969 371.33 16.1969 369.02V367.886H13.8169V366.948H19.5429V367.886H17.3029ZM20.6629 369.986V365.758H21.7549V377.378H20.6629V370.924H18.5909V369.986H20.6629ZM23.1829 365.464H24.2889V378.022H23.1829V365.464ZM31.7078 370.56V368.684H28.1518V370.56H31.7078ZM32.8278 365.996V371.484H27.0178V365.996H28.1518V367.802H31.7078V365.996H32.8278ZM29.4258 375.614V376.986H36.7058V377.896H28.3058V374.76H35.1098V373.472H28.2638V372.562H36.2438V375.614H29.4258ZM36.2438 368.18H38.1058V369.132H36.2438V371.974H35.0958V365.492H36.2438V368.18ZM48.5627 369.006H45.4267C44.5587 370.994 42.6547 372.492 40.0927 373.332L39.5887 372.394C42.4867 371.456 44.4747 369.65 44.7267 367.396H40.2327V366.472H45.9587C45.9587 367.018 45.8887 367.564 45.7487 368.068H48.5627V365.492H49.7247V374.83H48.5627V371.834H45.2587V370.896H48.5627V369.006ZM42.9347 376.818H50.0467V377.756H41.7867V373.92H42.9347V376.818Z" fill="#778BCE"/>
<path d="M218.778 70.884L218.288 69.946C220.458 69.582 222.838 67.832 222.838 65.83V65.564H218.68V64.626H228.186V65.564H224.028V65.83C224.028 67.832 226.422 69.554 228.606 69.904L228.144 70.828C226.226 70.45 224.238 69.218 223.44 67.496C222.642 69.232 220.668 70.478 218.778 70.884ZM224.014 73.474H229.138V74.426H217.742V73.474H222.866V70.436H224.014V73.474ZM234.835 64.57V66.824C234.835 69.036 236.263 71.318 238.027 72.2L237.313 73.11C235.983 72.396 234.849 70.926 234.275 69.204C233.729 71.038 232.567 72.606 231.153 73.362L230.467 72.438C232.273 71.514 233.701 69.106 233.701 66.824V64.57H234.835ZM242.353 68.574V69.526H240.281V76.036H239.133V63.492H240.281V68.574H242.353Z" fill="#778BCE"/>
<path d="M719.424 548.886V550.02C719.424 552.204 720.362 554.388 722.098 555.368L721.398 556.208C720.18 555.48 719.312 554.136 718.878 552.54C718.444 554.262 717.534 555.732 716.288 556.516L715.588 555.662C717.338 554.612 718.318 552.33 718.318 550.02V548.886H715.938V547.948H721.664V548.886H719.424ZM722.784 550.986V546.758H723.876V558.378H722.784V551.924H720.712V550.986H722.784ZM725.304 546.464H726.41V559.022H725.304V546.464ZM729.979 550.454C729.979 551.686 730.903 552.554 732.135 552.554C733.367 552.554 734.291 551.686 734.291 550.454C734.291 549.222 733.367 548.354 732.135 548.354C730.903 548.354 729.979 549.222 729.979 550.454ZM735.411 550.454C735.411 552.274 734.011 553.548 732.135 553.548C730.259 553.548 728.859 552.274 728.859 550.454C728.859 548.634 730.259 547.36 732.135 547.36C734.011 547.36 735.411 548.634 735.411 550.454ZM731.701 554.78V557.818H738.925V558.756H730.553V554.78H731.701ZM738.365 550.3H740.213V551.252H738.365V555.718H737.217V546.478H738.365V550.3Z" fill="#778BCE"/>
<path d="M936.424 144.886V146.02C936.424 148.204 937.362 150.388 939.098 151.368L938.398 152.208C937.18 151.48 936.312 150.136 935.878 148.54C935.444 150.262 934.534 151.732 933.288 152.516L932.588 151.662C934.338 150.612 935.318 148.33 935.318 146.02V144.886H932.938V143.948H938.664V144.886H936.424ZM939.784 146.986V142.758H940.876V154.378H939.784V147.924H937.712V146.986H939.784ZM942.304 142.464H943.41V155.022H942.304V142.464ZM946.979 146.454C946.979 147.686 947.903 148.554 949.135 148.554C950.367 148.554 951.291 147.686 951.291 146.454C951.291 145.222 950.367 144.354 949.135 144.354C947.903 144.354 946.979 145.222 946.979 146.454ZM952.411 146.454C952.411 148.274 951.011 149.548 949.135 149.548C947.259 149.548 945.859 148.274 945.859 146.454C945.859 144.634 947.259 143.36 949.135 143.36C951.011 143.36 952.411 144.634 952.411 146.454ZM948.701 150.78V153.818H955.925V154.756H947.553V150.78H948.701ZM955.365 146.3H957.213V147.252H955.365V151.718H954.217V142.478H955.365V146.3Z" fill="#778BCE"/>
<path d="M545.512 3.276H551.182C551.182 6.454 548.956 8.708 545.358 9.73L544.882 8.834C547.864 7.98 549.726 6.342 549.964 4.214H545.512V3.276ZM548.102 11.088V13.93H553.954V11.088H548.102ZM546.968 14.854V10.178H555.088V14.854H546.968ZM553.926 2.478H555.088V9.646H553.926V6.65H551.196V5.712H553.926V2.478ZM558.671 7.686L558.265 6.776C560.491 6.538 562.507 5.446 562.563 4.046H558.671V3.122H567.953V4.046H564.047C564.103 5.446 566.119 6.538 568.345 6.776L567.939 7.686C565.881 7.434 563.991 6.524 563.305 5.152C562.605 6.524 560.729 7.434 558.671 7.686ZM563.291 14.112C565.251 14.112 566.427 13.622 566.427 12.74C566.427 11.872 565.251 11.368 563.291 11.368C561.317 11.368 560.155 11.872 560.155 12.74C560.155 13.622 561.317 14.112 563.291 14.112ZM563.291 10.472C565.965 10.472 567.589 11.284 567.589 12.74C567.589 14.21 565.965 15.022 563.291 15.022C560.603 15.022 558.993 14.21 558.993 12.74C558.993 11.284 560.603 10.472 563.291 10.472ZM557.621 8.456H568.975V9.38H557.621V8.456Z" fill="#778BCE"/>
<path d="M908.85 517.172C909.816 517.172 910.516 516.374 910.516 515.254C910.516 514.162 909.816 513.364 908.85 513.364C907.87 513.364 907.184 514.162 907.184 515.254C907.184 516.374 907.87 517.172 908.85 517.172ZM908.85 512.398C910.404 512.398 911.538 513.574 911.538 515.254C911.538 516.962 910.404 518.124 908.85 518.124C907.296 518.124 906.162 516.962 906.162 515.254C906.162 513.574 907.296 512.398 908.85 512.398ZM909.41 508.842V510.62H911.958V511.558H905.728V510.62H908.276V508.842H909.41ZM915.276 508.464H916.382V521.022H915.276V514.708H913.666V520.42H912.588V508.758H913.666V513.77H915.276V508.464ZM927.805 511.194H924.711C923.927 513.168 922.009 514.512 919.237 515.17L918.817 514.232C921.883 513.518 923.633 512.02 923.843 510.032H919.475V509.094H925.089C925.089 509.514 925.047 509.906 924.963 510.298H927.805V508.478H928.967V514.89H927.805V513.588H924.529V512.692H927.805V511.194ZM922.037 520H929.387V520.91H920.903V517.676H927.819V516.388H920.875V515.464H928.967V518.544H922.037V520ZM937.758 514.708L937.212 515.59C935.994 515.1 935.126 514.176 934.678 513.042C934.272 514.274 933.404 515.282 932.158 515.8L931.598 514.96C933.194 514.302 934.118 512.776 934.118 511.194V511.054H931.85V510.13H934.118V508.618H935.21V510.13H937.45V511.054H935.21V511.194C935.21 512.678 936.162 514.106 937.758 514.708ZM933.656 517.788V516.85H942.098V521.036H940.95V517.788H933.656ZM940.992 508.492H942.098V516.192H940.992V512.776H939.41V516.108H938.332V508.702H939.41V511.838H940.992V508.492ZM951.766 510.886V512.02C951.766 514.204 952.704 516.388 954.44 517.368L953.74 518.208C952.522 517.48 951.654 516.136 951.22 514.54C950.786 516.262 949.876 517.732 948.63 518.516L947.93 517.662C949.68 516.612 950.66 514.33 950.66 512.02V510.886H948.28V509.948H954.006V510.886H951.766ZM955.126 512.986V508.758H956.218V520.378H955.126V513.924H953.054V512.986H955.126ZM957.646 508.464H958.752V521.022H957.646V508.464ZM965.415 509.57V511.824C965.415 514.12 966.913 516.43 968.775 517.27L968.089 518.194C966.661 517.494 965.457 516.01 964.855 514.218C964.281 516.108 963.077 517.676 961.607 518.432L960.907 517.494C962.755 516.612 964.281 514.204 964.281 511.824V509.57H965.415ZM970.091 508.478H971.239V521.064H970.091V508.478Z" fill="#778BCE"/>
<path d="M907.22 303.552V305.862H913.632V303.552H907.22ZM911 309.488H916.124V310.426H904.742V309.488H909.838V306.786H906.086V300.374H907.22V302.614H913.632V300.374H914.752V306.786H911V309.488ZM919.399 302.53C919.399 303.496 920.225 304.126 921.429 304.126C922.605 304.126 923.445 303.496 923.445 302.53C923.445 301.578 922.605 300.934 921.429 300.934C920.225 300.934 919.399 301.578 919.399 302.53ZM925.433 305.876L925.503 306.716C922.885 307.192 919.903 307.234 917.761 307.234L917.607 306.296C918.573 306.296 919.693 306.282 920.869 306.24V304.98C919.343 304.798 918.335 303.874 918.335 302.53C918.335 301.06 919.595 300.066 921.429 300.066C923.249 300.066 924.523 301.06 924.523 302.53C924.523 303.86 923.515 304.784 922.017 304.966V306.198C923.179 306.128 924.341 306.044 925.433 305.876ZM920.561 308.284V310.804H927.799V311.742H919.413V308.284H920.561ZM927.351 303.734H929.185V304.686H927.351V309.096H926.203V299.492H927.351V303.734Z" fill="#778BCE"/>
<path d="M386.478 560.986V559.362H380.374V560.986H386.478ZM387.612 556.87V561.896H379.24V556.87H380.374V558.48H386.478V556.87H387.612ZM380.304 565.34V567.818H387.85V568.756H379.17V565.34H380.304ZM377.714 563.114H389.124V564.038H384.084V566.474H382.936V564.038H377.714V563.114ZM397.957 562.456L397.341 563.366C395.969 562.834 394.891 561.784 394.345 560.468C393.813 561.938 392.707 563.058 391.237 563.646L390.635 562.722C392.539 562.036 393.743 560.342 393.743 558.438V557.108H394.891V558.48C394.891 560.202 396.137 561.812 397.957 562.456ZM392.553 565.522V564.598H400.967V569.05H399.805V565.522H392.553ZM399.805 556.492H400.967V563.898H399.805V560.048H397.075V559.11H399.805V556.492Z" fill="#778BCE"/>
<path d="M3.85795 398.149C3.24148 398.149 2.69129 397.992 2.20739 397.677C1.7268 397.359 1.34896 396.906 1.07386 396.32C0.802083 395.73 0.666193 395.022 0.666193 394.197C0.666193 393.371 0.803741 392.665 1.07884 392.079C1.35724 391.492 1.7384 391.043 2.2223 390.732C2.7062 390.42 3.25473 390.264 3.8679 390.264C4.34186 390.264 4.72301 390.344 5.01136 390.503C5.30303 390.659 5.52841 390.841 5.6875 391.05C5.84991 391.259 5.97585 391.442 6.06534 391.602H6.15483V387.818H7.64134V398H6.18963V396.812H6.06534C5.97585 396.974 5.84659 397.16 5.67756 397.369C5.51184 397.577 5.28314 397.76 4.99148 397.915C4.69981 398.071 4.32197 398.149 3.85795 398.149ZM4.18608 396.881C4.61364 396.881 4.97491 396.769 5.26989 396.543C5.56818 396.315 5.79356 395.998 5.94602 395.594C6.1018 395.189 6.17969 394.719 6.17969 394.182C6.17969 393.652 6.10346 393.187 5.95099 392.79C5.79853 392.392 5.57481 392.082 5.27983 391.86C4.98485 391.638 4.62027 391.527 4.18608 391.527C3.73864 391.527 3.36577 391.643 3.06747 391.875C2.76918 392.107 2.5438 392.424 2.39134 392.825C2.24219 393.226 2.16761 393.678 2.16761 394.182C2.16761 394.692 2.24384 395.151 2.39631 395.559C2.54877 395.967 2.77415 396.29 3.07244 396.528C3.37405 396.764 3.74527 396.881 4.18608 396.881ZM9.76296 398V390.364H11.2495V398H9.76296ZM10.5137 389.185C10.2551 389.185 10.0331 389.099 9.84748 388.927C9.66519 388.751 9.57404 388.542 9.57404 388.3C9.57404 388.055 9.66519 387.846 9.84748 387.674C10.0331 387.498 10.2551 387.411 10.5137 387.411C10.7722 387.411 10.9926 387.498 11.1749 387.674C11.3605 387.846 11.4533 388.055 11.4533 388.3C11.4533 388.542 11.3605 388.751 11.1749 388.927C10.9926 389.099 10.7722 389.185 10.5137 389.185ZM18.9716 392.228L17.6243 392.467C17.5679 392.294 17.4785 392.13 17.3558 391.974C17.2365 391.819 17.0741 391.691 16.8686 391.592C16.6631 391.492 16.4063 391.442 16.098 391.442C15.6771 391.442 15.3258 391.537 15.044 391.726C14.7623 391.911 14.6214 392.152 14.6214 392.447C14.6214 392.702 14.7159 392.907 14.9048 393.063C15.0938 393.219 15.3987 393.347 15.8196 393.446L17.0327 393.724C17.7353 393.887 18.259 394.137 18.6037 394.475C18.9484 394.813 19.1207 395.252 19.1207 395.793C19.1207 396.25 18.9882 396.658 18.723 397.016C18.4612 397.37 18.0949 397.649 17.6243 397.851C17.157 398.053 16.6151 398.154 15.9986 398.154C15.1435 398.154 14.4458 397.972 13.9055 397.607C13.3653 397.239 13.0339 396.717 12.9112 396.041L14.348 395.822C14.4375 396.197 14.6214 396.48 14.8999 396.673C15.1783 396.862 15.5412 396.956 15.9886 396.956C16.4759 396.956 16.8653 396.855 17.157 396.653C17.4486 396.447 17.5945 396.197 17.5945 395.902C17.5945 395.663 17.505 395.463 17.326 395.3C17.1503 395.138 16.8802 395.015 16.5156 394.933L15.223 394.649C14.5104 394.487 13.9834 394.228 13.642 393.874C13.304 393.519 13.1349 393.07 13.1349 392.526C13.1349 392.076 13.2609 391.681 13.5128 391.343C13.7647 391.005 14.1127 390.741 14.5568 390.553C15.0009 390.36 15.5097 390.264 16.0831 390.264C16.9084 390.264 17.558 390.443 18.032 390.801C18.5059 391.156 18.8191 391.631 18.9716 392.228ZM23.9718 398.154C23.2327 398.154 22.5963 397.987 22.0627 397.652C21.5324 397.314 21.1247 396.848 20.8397 396.255C20.5546 395.662 20.4121 394.982 20.4121 394.217C20.4121 393.441 20.5579 392.757 20.8496 392.163C21.1413 391.567 21.5523 391.101 22.0826 390.766C22.6129 390.432 23.2376 390.264 23.9569 390.264C24.5369 390.264 25.0539 390.372 25.508 390.587C25.9621 390.799 26.3283 391.098 26.6067 391.482C26.8884 391.867 27.0558 392.316 27.1088 392.83H25.6621C25.5826 392.472 25.4003 392.163 25.1152 391.905C24.8335 391.646 24.4557 391.517 23.9817 391.517C23.5674 391.517 23.2045 391.626 22.8929 391.845C22.5847 392.061 22.3444 392.369 22.1721 392.77C21.9997 393.168 21.9135 393.638 21.9135 394.182C21.9135 394.739 21.998 395.219 22.1671 395.624C22.3361 396.028 22.5748 396.341 22.883 396.563C23.1945 396.785 23.5608 396.896 23.9817 396.896C24.2634 396.896 24.5186 396.845 24.7473 396.742C24.9793 396.636 25.1732 396.485 25.329 396.29C25.4881 396.094 25.5991 395.859 25.6621 395.584H27.1088C27.0558 396.078 26.8951 396.518 26.6266 396.906C26.3581 397.294 25.9985 397.599 25.5478 397.821C25.1003 398.043 24.575 398.154 23.9718 398.154ZM31.9151 398.154C31.1992 398.154 30.5745 397.99 30.0408 397.662C29.5072 397.334 29.0929 396.875 28.7979 396.285C28.503 395.695 28.3555 395.005 28.3555 394.217C28.3555 393.424 28.503 392.732 28.7979 392.138C29.0929 391.545 29.5072 391.085 30.0408 390.756C30.5745 390.428 31.1992 390.264 31.9151 390.264C32.631 390.264 33.2558 390.428 33.7894 390.756C34.323 391.085 34.7373 391.545 35.0323 392.138C35.3273 392.732 35.4748 393.424 35.4748 394.217C35.4748 395.005 35.3273 395.695 35.0323 396.285C34.7373 396.875 34.323 397.334 33.7894 397.662C33.2558 397.99 32.631 398.154 31.9151 398.154ZM31.9201 396.906C32.3841 396.906 32.7686 396.784 33.0735 396.538C33.3784 396.293 33.6038 395.967 33.7496 395.559C33.8988 395.151 33.9734 394.702 33.9734 394.212C33.9734 393.724 33.8988 393.277 33.7496 392.869C33.6038 392.458 33.3784 392.129 33.0735 391.88C32.7686 391.631 32.3841 391.507 31.9201 391.507C31.4528 391.507 31.065 391.631 30.7567 391.88C30.4518 392.129 30.2248 392.458 30.0756 392.869C29.9298 393.277 29.8569 393.724 29.8569 394.212C29.8569 394.702 29.9298 395.151 30.0756 395.559C30.2248 395.967 30.4518 396.293 30.7567 396.538C31.065 396.784 31.4528 396.906 31.9201 396.906ZM43.407 390.364L40.6378 398H39.0469L36.2727 390.364H37.8686L39.8026 396.24H39.8821L41.8111 390.364H43.407ZM47.8354 398.154C47.083 398.154 46.4351 397.993 45.8915 397.672C45.3513 397.347 44.9337 396.891 44.6387 396.305C44.347 395.715 44.2012 395.024 44.2012 394.232C44.2012 393.449 44.347 392.76 44.6387 392.163C44.9337 391.567 45.3446 391.101 45.8716 390.766C46.4019 390.432 47.0217 390.264 47.731 390.264C48.1619 390.264 48.5795 390.335 48.9838 390.478C49.3882 390.621 49.7511 390.844 50.0726 391.149C50.3941 391.454 50.6477 391.85 50.8333 392.337C51.0189 392.821 51.1117 393.41 51.1117 394.102V394.629H45.0414V393.516H49.655C49.655 393.125 49.5755 392.778 49.4164 392.477C49.2573 392.172 49.0336 391.931 48.7452 391.756C48.4602 391.58 48.1254 391.492 47.7409 391.492C47.3233 391.492 46.9587 391.595 46.6472 391.8C46.339 392.003 46.1003 392.268 45.9313 392.596C45.7656 392.921 45.6827 393.274 45.6827 393.655V394.525C45.6827 395.035 45.7722 395.469 45.9512 395.827C46.1335 396.185 46.387 396.459 46.7118 396.648C47.0366 396.833 47.4161 396.926 47.8503 396.926C48.132 396.926 48.3889 396.886 48.6209 396.807C48.8529 396.724 49.0534 396.601 49.2225 396.439C49.3915 396.277 49.5208 396.076 49.6103 395.837L51.0172 396.091C50.9045 396.505 50.7024 396.868 50.4107 397.18C50.1223 397.488 49.7594 397.728 49.3219 397.901C48.8877 398.07 48.3922 398.154 47.8354 398.154ZM52.761 398V390.364H54.1978V391.577H54.2773C54.4165 391.166 54.6618 390.843 55.0131 390.607C55.3678 390.369 55.7688 390.249 56.2163 390.249C56.3091 390.249 56.4184 390.253 56.5444 390.259C56.6737 390.266 56.7747 390.274 56.8477 390.284V391.706C56.788 391.689 56.6819 391.671 56.5295 391.651C56.377 391.628 56.2246 391.616 56.0721 391.616C55.7208 391.616 55.4076 391.691 55.1325 391.84C54.8607 391.986 54.6452 392.19 54.4862 392.452C54.3271 392.71 54.2475 393.005 54.2475 393.337V398H52.761ZM59.3061 400.864C59.084 400.864 58.8819 400.845 58.6996 400.809C58.5173 400.776 58.3814 400.739 58.2919 400.7L58.6499 399.482C58.9216 399.554 59.1636 399.586 59.3757 399.576C59.5878 399.566 59.7751 399.487 59.9375 399.337C60.1032 399.188 60.2491 398.945 60.375 398.607L60.5589 398.099L57.7649 390.364H59.3558L61.2898 396.29H61.3693L63.3033 390.364H64.8991L61.7521 399.019C61.6063 399.417 61.4207 399.753 61.1953 400.028C60.9699 400.307 60.7015 400.516 60.3899 400.655C60.0784 400.794 59.7171 400.864 59.3061 400.864Z" fill="#323E64"/>
<path d="M173.999 96V88.3636H175.486V96H173.999ZM174.75 87.1854C174.491 87.1854 174.269 87.0992 174.084 86.9268C173.902 86.7512 173.81 86.5424 173.81 86.3004C173.81 86.0552 173.902 85.8464 174.084 85.674C174.269 85.4983 174.491 85.4105 174.75 85.4105C175.009 85.4105 175.229 85.4983 175.411 85.674C175.597 85.8464 175.69 86.0552 175.69 86.3004C175.69 86.5424 175.597 86.7512 175.411 86.9268C175.229 87.0992 175.009 87.1854 174.75 87.1854ZM178.972 91.4659V96H177.486V88.3636H178.912V89.6065H179.007C179.183 89.2022 179.458 88.8774 179.832 88.6321C180.21 88.3868 180.686 88.2642 181.259 88.2642C181.779 88.2642 182.235 88.3736 182.626 88.5923C183.017 88.8078 183.321 89.1293 183.536 89.5568C183.751 89.9844 183.859 90.513 183.859 91.1428V96H182.373V91.3217C182.373 90.7682 182.229 90.3357 181.94 90.0241C181.652 89.7093 181.256 89.5518 180.752 89.5518C180.407 89.5518 180.101 89.6264 179.832 89.7756C179.567 89.9247 179.357 90.1435 179.201 90.4318C179.048 90.7169 178.972 91.0616 178.972 91.4659ZM191.575 90.228L190.228 90.4666C190.171 90.2943 190.082 90.1302 189.959 89.9744C189.84 89.8187 189.678 89.6911 189.472 89.5916C189.267 89.4922 189.01 89.4425 188.702 89.4425C188.281 89.4425 187.929 89.5369 187.648 89.7259C187.366 89.9115 187.225 90.1518 187.225 90.4467C187.225 90.7019 187.319 90.9074 187.508 91.0632C187.697 91.219 188.002 91.3466 188.423 91.446L189.636 91.7244C190.339 91.8868 190.863 92.1371 191.207 92.4751C191.552 92.8132 191.724 93.2524 191.724 93.7926C191.724 94.25 191.592 94.6577 191.327 95.0156C191.065 95.3703 190.698 95.6487 190.228 95.8509C189.76 96.053 189.219 96.1541 188.602 96.1541C187.747 96.1541 187.049 95.9718 186.509 95.6072C185.969 95.2393 185.637 94.7173 185.515 94.0412L186.952 93.8224C187.041 94.197 187.225 94.4804 187.503 94.6726C187.782 94.8615 188.145 94.956 188.592 94.956C189.079 94.956 189.469 94.8549 189.76 94.6527C190.052 94.4472 190.198 94.197 190.198 93.902C190.198 93.6634 190.108 93.4628 189.93 93.3004C189.754 93.138 189.484 93.0154 189.119 92.9325L187.827 92.6491C187.114 92.4867 186.587 92.2282 186.246 91.8736C185.907 91.5189 185.738 91.0698 185.738 90.5263C185.738 90.0755 185.864 89.6811 186.116 89.343C186.368 89.005 186.716 88.7415 187.16 88.5526C187.604 88.3603 188.113 88.2642 188.687 88.2642C189.512 88.2642 190.162 88.4432 190.635 88.8011C191.109 89.1558 191.423 89.6314 191.575 90.228ZM193.359 98.8636V88.3636H194.81V89.6016H194.935C195.021 89.4425 195.145 89.2585 195.308 89.0497C195.47 88.8409 195.695 88.6586 195.984 88.5028C196.272 88.3438 196.653 88.2642 197.127 88.2642C197.744 88.2642 198.294 88.42 198.778 88.7315C199.262 89.0431 199.641 89.4922 199.916 90.0788C200.195 90.6655 200.334 91.3714 200.334 92.1967C200.334 93.022 200.196 93.7296 199.921 94.3196C199.646 94.9062 199.268 95.3587 198.788 95.6768C198.307 95.9917 197.759 96.1491 197.142 96.1491C196.678 96.1491 196.299 96.0713 196.004 95.9155C195.712 95.7597 195.483 95.5774 195.317 95.3686C195.152 95.1598 195.024 94.9742 194.935 94.8118H194.845V98.8636H193.359ZM194.815 92.1818C194.815 92.7187 194.893 93.1894 195.049 93.5938C195.205 93.9981 195.43 94.3146 195.725 94.5433C196.02 94.7687 196.381 94.8814 196.809 94.8814C197.253 94.8814 197.624 94.7637 197.923 94.5284C198.221 94.2898 198.446 93.9666 198.599 93.5589C198.754 93.1513 198.832 92.6922 198.832 92.1818C198.832 91.678 198.756 91.2256 198.604 90.8246C198.455 90.4235 198.229 90.107 197.928 89.875C197.629 89.643 197.256 89.527 196.809 89.527C196.378 89.527 196.013 89.638 195.715 89.8601C195.42 90.0821 195.196 90.392 195.044 90.7898C194.892 91.1875 194.815 91.6515 194.815 92.1818ZM205.29 96.1541C204.538 96.1541 203.89 95.9934 203.347 95.6719C202.806 95.3471 202.389 94.8913 202.094 94.3047C201.802 93.7147 201.656 93.0237 201.656 92.2315C201.656 91.4493 201.802 90.7599 202.094 90.1634C202.389 89.5668 202.8 89.1011 203.327 88.7663C203.857 88.4316 204.477 88.2642 205.186 88.2642C205.617 88.2642 206.035 88.3355 206.439 88.478C206.843 88.6205 207.206 88.8442 207.528 89.1491C207.849 89.4541 208.103 89.8501 208.288 90.3374C208.474 90.8213 208.567 91.4096 208.567 92.1023V92.6293H202.496V91.5156H207.11C207.11 91.1245 207.031 90.7782 206.871 90.4766C206.712 90.1716 206.489 89.9313 206.2 89.7557C205.915 89.58 205.58 89.4922 205.196 89.4922C204.778 89.4922 204.414 89.5949 204.102 89.8004C203.794 90.0026 203.555 90.2678 203.386 90.5959C203.221 90.9207 203.138 91.2737 203.138 91.6548V92.5249C203.138 93.0353 203.227 93.4695 203.406 93.8274C203.589 94.1854 203.842 94.4588 204.167 94.6477C204.492 94.8333 204.871 94.9261 205.305 94.9261C205.587 94.9261 205.844 94.8864 206.076 94.8068C206.308 94.724 206.509 94.6013 206.678 94.4389C206.847 94.2765 206.976 94.076 207.065 93.8374L208.472 94.0909C208.36 94.5052 208.157 94.8681 207.866 95.1797C207.577 95.4879 207.214 95.7282 206.777 95.9006C206.343 96.0696 205.847 96.1541 205.29 96.1541ZM213.433 96.1541C212.694 96.1541 212.057 95.9867 211.524 95.652C210.993 95.3139 210.586 94.8482 210.301 94.255C210.016 93.6617 209.873 92.9822 209.873 92.2166C209.873 91.4411 210.019 90.7566 210.311 90.1634C210.602 89.5668 211.013 89.1011 211.544 88.7663C212.074 88.4316 212.699 88.2642 213.418 88.2642C213.998 88.2642 214.515 88.3719 214.969 88.5874C215.423 88.7995 215.789 89.0978 216.068 89.4822C216.349 89.8667 216.517 90.3158 216.57 90.8295H215.123C215.044 90.4716 214.861 90.1634 214.576 89.9048C214.294 89.6463 213.917 89.517 213.443 89.517C213.028 89.517 212.665 89.6264 212.354 89.8452C212.046 90.0606 211.805 90.3688 211.633 90.7699C211.461 91.1676 211.374 91.6383 211.374 92.1818C211.374 92.7386 211.459 93.2192 211.628 93.6236C211.797 94.0279 212.036 94.3411 212.344 94.5632C212.655 94.7853 213.022 94.8963 213.443 94.8963C213.724 94.8963 213.98 94.8449 214.208 94.7422C214.44 94.6361 214.634 94.4853 214.79 94.2898C214.949 94.0942 215.06 93.8589 215.123 93.5838H216.57C216.517 94.0777 216.356 94.5185 216.088 94.9062C215.819 95.294 215.459 95.599 215.009 95.821C214.561 96.0431 214.036 96.1541 213.433 96.1541ZM221.724 88.3636V89.5568H217.553V88.3636H221.724ZM218.672 86.5341H220.158V93.7578C220.158 94.0462 220.201 94.2633 220.287 94.4091C220.373 94.5516 220.484 94.6494 220.62 94.7024C220.76 94.7521 220.91 94.777 221.073 94.777C221.192 94.777 221.297 94.7687 221.386 94.7521C221.475 94.7356 221.545 94.7223 221.595 94.7124L221.863 95.9403C221.777 95.9735 221.654 96.0066 221.495 96.0398C221.336 96.0762 221.137 96.0961 220.899 96.0994C220.508 96.1061 220.143 96.0365 219.805 95.8906C219.467 95.7448 219.194 95.5194 218.985 95.2145C218.776 94.9096 218.672 94.5268 218.672 94.0661V86.5341ZM223.368 96V88.3636H224.855V96H223.368ZM224.119 87.1854C223.861 87.1854 223.639 87.0992 223.453 86.9268C223.271 86.7512 223.18 86.5424 223.18 86.3004C223.18 86.0552 223.271 85.8464 223.453 85.674C223.639 85.4983 223.861 85.4105 224.119 85.4105C224.378 85.4105 224.598 85.4983 224.78 85.674C224.966 85.8464 225.059 86.0552 225.059 86.3004C225.059 86.5424 224.966 86.7512 224.78 86.9268C224.598 87.0992 224.378 87.1854 224.119 87.1854ZM230.071 96.1541C229.355 96.1541 228.731 95.9901 228.197 95.6619C227.663 95.3338 227.249 94.8748 226.954 94.2848C226.659 93.6948 226.512 93.0054 226.512 92.2166C226.512 91.4245 226.659 90.7318 226.954 90.1385C227.249 89.5452 227.663 89.0845 228.197 88.7564C228.731 88.4283 229.355 88.2642 230.071 88.2642C230.787 88.2642 231.412 88.4283 231.946 88.7564C232.479 89.0845 232.894 89.5452 233.189 90.1385C233.484 90.7318 233.631 91.4245 233.631 92.2166C233.631 93.0054 233.484 93.6948 233.189 94.2848C232.894 94.8748 232.479 95.3338 231.946 95.6619C231.412 95.9901 230.787 96.1541 230.071 96.1541ZM230.076 94.9062C230.54 94.9062 230.925 94.7836 231.23 94.5384C231.535 94.2931 231.76 93.9666 231.906 93.5589C232.055 93.1513 232.13 92.7022 232.13 92.2116C232.13 91.7244 232.055 91.277 231.906 90.8693C231.76 90.4583 231.535 90.1286 231.23 89.88C230.925 89.6314 230.54 89.5071 230.076 89.5071C229.609 89.5071 229.221 89.6314 228.913 89.88C228.608 90.1286 228.381 90.4583 228.232 90.8693C228.086 91.277 228.013 91.7244 228.013 92.2116C228.013 92.7022 228.086 93.1513 228.232 93.5589C228.381 93.9666 228.608 94.2931 228.913 94.5384C229.221 94.7836 229.609 94.9062 230.076 94.9062ZM236.777 91.4659V96H235.29V88.3636H236.717V89.6065H236.812C236.987 89.2022 237.262 88.8774 237.637 88.6321C238.015 88.3868 238.49 88.2642 239.064 88.2642C239.584 88.2642 240.04 88.3736 240.431 88.5923C240.822 88.8078 241.125 89.1293 241.341 89.5568C241.556 89.9844 241.664 90.513 241.664 91.1428V96H240.177V91.3217C240.177 90.7682 240.033 90.3357 239.745 90.0241C239.456 89.7093 239.06 89.5518 238.557 89.5518C238.212 89.5518 237.905 89.6264 237.637 89.7756C237.372 89.9247 237.161 90.1435 237.006 90.4318C236.853 90.7169 236.777 91.0616 236.777 91.4659Z" fill="#323E64"/>
<path d="M715.999 581.864V571.364H717.451V572.602H717.575C717.661 572.442 717.786 572.259 717.948 572.05C718.111 571.841 718.336 571.659 718.624 571.503C718.913 571.344 719.294 571.264 719.768 571.264C720.384 571.264 720.934 571.42 721.418 571.732C721.902 572.043 722.282 572.492 722.557 573.079C722.835 573.665 722.974 574.371 722.974 575.197C722.974 576.022 722.837 576.73 722.562 577.32C722.287 577.906 721.909 578.359 721.428 578.677C720.948 578.992 720.399 579.149 719.783 579.149C719.319 579.149 718.939 579.071 718.644 578.915C718.353 578.76 718.124 578.577 717.958 578.369C717.792 578.16 717.665 577.974 717.575 577.812H717.486V581.864H715.999ZM717.456 575.182C717.456 575.719 717.534 576.189 717.69 576.594C717.845 576.998 718.071 577.315 718.366 577.543C718.661 577.769 719.022 577.881 719.45 577.881C719.894 577.881 720.265 577.764 720.563 577.528C720.862 577.29 721.087 576.967 721.239 576.559C721.395 576.151 721.473 575.692 721.473 575.182C721.473 574.678 721.397 574.226 721.244 573.825C721.095 573.424 720.87 573.107 720.568 572.875C720.27 572.643 719.897 572.527 719.45 572.527C719.019 572.527 718.654 572.638 718.356 572.86C718.061 573.082 717.837 573.392 717.685 573.79C717.532 574.187 717.456 574.652 717.456 575.182ZM724.64 579V571.364H726.077V572.577H726.156C726.295 572.166 726.541 571.843 726.892 571.607C727.247 571.369 727.648 571.249 728.095 571.249C728.188 571.249 728.297 571.253 728.423 571.259C728.553 571.266 728.654 571.274 728.727 571.284V572.706C728.667 572.689 728.561 572.671 728.408 572.651C728.256 572.628 728.103 572.616 727.951 572.616C727.6 572.616 727.286 572.691 727.011 572.84C726.74 572.986 726.524 573.19 726.365 573.452C726.206 573.71 726.126 574.005 726.126 574.337V579H724.64ZM732.956 579.154C732.24 579.154 731.615 578.99 731.082 578.662C730.548 578.334 730.134 577.875 729.839 577.285C729.544 576.695 729.396 576.005 729.396 575.217C729.396 574.424 729.544 573.732 729.839 573.138C730.134 572.545 730.548 572.085 731.082 571.756C731.615 571.428 732.24 571.264 732.956 571.264C733.672 571.264 734.297 571.428 734.83 571.756C735.364 572.085 735.778 572.545 736.073 573.138C736.368 573.732 736.516 574.424 736.516 575.217C736.516 576.005 736.368 576.695 736.073 577.285C735.778 577.875 735.364 578.334 734.83 578.662C734.297 578.99 733.672 579.154 732.956 579.154ZM732.961 577.906C733.425 577.906 733.81 577.784 734.115 577.538C734.419 577.293 734.645 576.967 734.791 576.559C734.94 576.151 735.014 575.702 735.014 575.212C735.014 574.724 734.94 574.277 734.791 573.869C734.645 573.458 734.419 573.129 734.115 572.88C733.81 572.631 733.425 572.507 732.961 572.507C732.494 572.507 732.106 572.631 731.798 572.88C731.493 573.129 731.266 573.458 731.117 573.869C730.971 574.277 730.898 574.724 730.898 575.212C730.898 575.702 730.971 576.151 731.117 576.559C731.266 576.967 731.493 577.293 731.798 577.538C732.106 577.784 732.494 577.906 732.961 577.906ZM738.175 581.864V571.364H739.627V572.602H739.751C739.837 572.442 739.962 572.259 740.124 572.05C740.286 571.841 740.512 571.659 740.8 571.503C741.088 571.344 741.47 571.264 741.944 571.264C742.56 571.264 743.11 571.42 743.594 571.732C744.078 572.043 744.458 572.492 744.733 573.079C745.011 573.665 745.15 574.371 745.15 575.197C745.15 576.022 745.013 576.73 744.738 577.32C744.462 577.906 744.085 578.359 743.604 578.677C743.123 578.992 742.575 579.149 741.958 579.149C741.494 579.149 741.115 579.071 740.82 578.915C740.528 578.76 740.3 578.577 740.134 578.369C739.968 578.16 739.841 577.974 739.751 577.812H739.662V581.864H738.175ZM739.632 575.182C739.632 575.719 739.71 576.189 739.865 576.594C740.021 576.998 740.247 577.315 740.542 577.543C740.837 577.769 741.198 577.881 741.625 577.881C742.069 577.881 742.441 577.764 742.739 577.528C743.037 577.29 743.263 576.967 743.415 576.559C743.571 576.151 743.649 575.692 743.649 575.182C743.649 574.678 743.573 574.226 743.42 573.825C743.271 573.424 743.046 573.107 742.744 572.875C742.446 572.643 742.073 572.527 741.625 572.527C741.194 572.527 740.83 572.638 740.532 572.86C740.237 573.082 740.013 573.392 739.86 573.79C739.708 574.187 739.632 574.652 739.632 575.182ZM750.032 579.154C749.316 579.154 748.692 578.99 748.158 578.662C747.624 578.334 747.21 577.875 746.915 577.285C746.62 576.695 746.473 576.005 746.473 575.217C746.473 574.424 746.62 573.732 746.915 573.138C747.21 572.545 747.624 572.085 748.158 571.756C748.692 571.428 749.316 571.264 750.032 571.264C750.748 571.264 751.373 571.428 751.907 571.756C752.44 572.085 752.855 572.545 753.15 573.138C753.444 573.732 753.592 574.424 753.592 575.217C753.592 576.005 753.444 576.695 753.15 577.285C752.855 577.875 752.44 578.334 751.907 578.662C751.373 578.99 750.748 579.154 750.032 579.154ZM750.037 577.906C750.501 577.906 750.886 577.784 751.191 577.538C751.496 577.293 751.721 576.967 751.867 576.559C752.016 576.151 752.091 575.702 752.091 575.212C752.091 574.724 752.016 574.277 751.867 573.869C751.721 573.458 751.496 573.129 751.191 572.88C750.886 572.631 750.501 572.507 750.037 572.507C749.57 572.507 749.182 572.631 748.874 572.88C748.569 573.129 748.342 573.458 748.193 573.869C748.047 574.277 747.974 574.724 747.974 575.212C747.974 575.702 748.047 576.151 748.193 576.559C748.342 576.967 748.569 577.293 748.874 577.538C749.182 577.784 749.57 577.906 750.037 577.906ZM760.974 573.228L759.626 573.467C759.57 573.294 759.48 573.13 759.358 572.974C759.238 572.819 759.076 572.691 758.871 572.592C758.665 572.492 758.408 572.442 758.1 572.442C757.679 572.442 757.328 572.537 757.046 572.726C756.764 572.911 756.623 573.152 756.623 573.447C756.623 573.702 756.718 573.907 756.907 574.063C757.096 574.219 757.401 574.347 757.822 574.446L759.035 574.724C759.737 574.887 760.261 575.137 760.606 575.475C760.95 575.813 761.123 576.252 761.123 576.793C761.123 577.25 760.99 577.658 760.725 578.016C760.463 578.37 760.097 578.649 759.626 578.851C759.159 579.053 758.617 579.154 758.001 579.154C757.145 579.154 756.448 578.972 755.907 578.607C755.367 578.239 755.036 577.717 754.913 577.041L756.35 576.822C756.439 577.197 756.623 577.48 756.902 577.673C757.18 577.862 757.543 577.956 757.991 577.956C758.478 577.956 758.867 577.855 759.159 577.653C759.451 577.447 759.596 577.197 759.596 576.902C759.596 576.663 759.507 576.463 759.328 576.3C759.152 576.138 758.882 576.015 758.518 575.933L757.225 575.649C756.512 575.487 755.985 575.228 755.644 574.874C755.306 574.519 755.137 574.07 755.137 573.526C755.137 573.076 755.263 572.681 755.515 572.343C755.767 572.005 756.115 571.741 756.559 571.553C757.003 571.36 757.512 571.264 758.085 571.264C758.91 571.264 759.56 571.443 760.034 571.801C760.508 572.156 760.821 572.631 760.974 573.228ZM764.979 579.169C764.496 579.169 764.058 579.08 763.667 578.901C763.276 578.718 762.966 578.455 762.737 578.11C762.512 577.765 762.399 577.343 762.399 576.842C762.399 576.411 762.482 576.057 762.648 575.778C762.813 575.5 763.037 575.28 763.319 575.117C763.601 574.955 763.915 574.832 764.263 574.749C764.612 574.666 764.966 574.603 765.327 574.56C765.785 574.507 766.156 574.464 766.441 574.431C766.726 574.395 766.933 574.337 767.062 574.257C767.192 574.178 767.256 574.048 767.256 573.869V573.835C767.256 573.4 767.134 573.064 766.888 572.825C766.647 572.587 766.285 572.467 765.805 572.467C765.304 572.467 764.91 572.578 764.621 572.8C764.336 573.019 764.139 573.263 764.03 573.531L762.633 573.213C762.799 572.749 763.04 572.375 763.359 572.089C763.68 571.801 764.05 571.592 764.467 571.463C764.885 571.33 765.324 571.264 765.785 571.264C766.09 571.264 766.413 571.301 766.754 571.374C767.099 571.443 767.42 571.572 767.719 571.761C768.02 571.95 768.267 572.22 768.46 572.572C768.652 572.92 768.748 573.372 768.748 573.929V579H767.296V577.956H767.237C767.14 578.148 766.996 578.337 766.804 578.523C766.612 578.708 766.365 578.862 766.063 578.985C765.762 579.108 765.4 579.169 764.979 579.169ZM765.303 577.976C765.714 577.976 766.065 577.895 766.357 577.732C766.652 577.57 766.875 577.358 767.028 577.096C767.183 576.831 767.261 576.547 767.261 576.246V575.261C767.208 575.314 767.106 575.364 766.953 575.411C766.804 575.454 766.633 575.492 766.441 575.525C766.249 575.555 766.062 575.583 765.879 575.609C765.697 575.633 765.545 575.652 765.422 575.669C765.134 575.705 764.87 575.767 764.631 575.853C764.396 575.939 764.207 576.063 764.065 576.226C763.925 576.385 763.856 576.597 763.856 576.862C763.856 577.23 763.992 577.509 764.263 577.697C764.535 577.883 764.882 577.976 765.303 577.976ZM772.214 568.818V579H770.728V568.818H772.214Z" fill="#323E64"/>
<path d="M932.999 177.864V167.364H934.451V168.602H934.575C934.661 168.442 934.786 168.259 934.948 168.05C935.111 167.841 935.336 167.659 935.624 167.503C935.913 167.344 936.294 167.264 936.768 167.264C937.384 167.264 937.934 167.42 938.418 167.732C938.902 168.043 939.282 168.492 939.557 169.079C939.835 169.665 939.974 170.371 939.974 171.197C939.974 172.022 939.837 172.73 939.562 173.32C939.287 173.906 938.909 174.359 938.428 174.677C937.948 174.992 937.399 175.149 936.783 175.149C936.319 175.149 935.939 175.071 935.644 174.915C935.353 174.76 935.124 174.577 934.958 174.369C934.792 174.16 934.665 173.974 934.575 173.812H934.486V177.864H932.999ZM934.456 171.182C934.456 171.719 934.534 172.189 934.69 172.594C934.845 172.998 935.071 173.315 935.366 173.543C935.661 173.769 936.022 173.881 936.45 173.881C936.894 173.881 937.265 173.764 937.563 173.528C937.862 173.29 938.087 172.967 938.239 172.559C938.395 172.151 938.473 171.692 938.473 171.182C938.473 170.678 938.397 170.226 938.244 169.825C938.095 169.424 937.87 169.107 937.568 168.875C937.27 168.643 936.897 168.527 936.45 168.527C936.019 168.527 935.654 168.638 935.356 168.86C935.061 169.082 934.837 169.392 934.685 169.79C934.532 170.187 934.456 170.652 934.456 171.182ZM941.64 175V167.364H943.077V168.577H943.156C943.295 168.166 943.541 167.843 943.892 167.607C944.247 167.369 944.648 167.249 945.095 167.249C945.188 167.249 945.297 167.253 945.423 167.259C945.553 167.266 945.654 167.274 945.727 167.284V168.706C945.667 168.689 945.561 168.671 945.408 168.651C945.256 168.628 945.103 168.616 944.951 168.616C944.6 168.616 944.286 168.691 944.011 168.84C943.74 168.986 943.524 169.19 943.365 169.452C943.206 169.71 943.126 170.005 943.126 170.337V175H941.64ZM949.956 175.154C949.24 175.154 948.615 174.99 948.082 174.662C947.548 174.334 947.134 173.875 946.839 173.285C946.544 172.695 946.396 172.005 946.396 171.217C946.396 170.424 946.544 169.732 946.839 169.138C947.134 168.545 947.548 168.085 948.082 167.756C948.615 167.428 949.24 167.264 949.956 167.264C950.672 167.264 951.297 167.428 951.83 167.756C952.364 168.085 952.778 168.545 953.073 169.138C953.368 169.732 953.516 170.424 953.516 171.217C953.516 172.005 953.368 172.695 953.073 173.285C952.778 173.875 952.364 174.334 951.83 174.662C951.297 174.99 950.672 175.154 949.956 175.154ZM949.961 173.906C950.425 173.906 950.81 173.784 951.115 173.538C951.419 173.293 951.645 172.967 951.791 172.559C951.94 172.151 952.014 171.702 952.014 171.212C952.014 170.724 951.94 170.277 951.791 169.869C951.645 169.458 951.419 169.129 951.115 168.88C950.81 168.631 950.425 168.507 949.961 168.507C949.494 168.507 949.106 168.631 948.798 168.88C948.493 169.129 948.266 169.458 948.117 169.869C947.971 170.277 947.898 170.724 947.898 171.212C947.898 171.702 947.971 172.151 948.117 172.559C948.266 172.967 948.493 173.293 948.798 173.538C949.106 173.784 949.494 173.906 949.961 173.906ZM955.175 177.864V167.364H956.627V168.602H956.751C956.837 168.442 956.962 168.259 957.124 168.05C957.286 167.841 957.512 167.659 957.8 167.503C958.088 167.344 958.47 167.264 958.944 167.264C959.56 167.264 960.11 167.42 960.594 167.732C961.078 168.043 961.458 168.492 961.733 169.079C962.011 169.665 962.15 170.371 962.15 171.197C962.15 172.022 962.013 172.73 961.738 173.32C961.462 173.906 961.085 174.359 960.604 174.677C960.123 174.992 959.575 175.149 958.958 175.149C958.494 175.149 958.115 175.071 957.82 174.915C957.528 174.76 957.3 174.577 957.134 174.369C956.968 174.16 956.841 173.974 956.751 173.812H956.662V177.864H955.175ZM956.632 171.182C956.632 171.719 956.71 172.189 956.865 172.594C957.021 172.998 957.247 173.315 957.542 173.543C957.837 173.769 958.198 173.881 958.625 173.881C959.069 173.881 959.441 173.764 959.739 173.528C960.037 173.29 960.263 172.967 960.415 172.559C960.571 172.151 960.649 171.692 960.649 171.182C960.649 170.678 960.573 170.226 960.42 169.825C960.271 169.424 960.046 169.107 959.744 168.875C959.446 168.643 959.073 168.527 958.625 168.527C958.194 168.527 957.83 168.638 957.532 168.86C957.237 169.082 957.013 169.392 956.86 169.79C956.708 170.187 956.632 170.652 956.632 171.182ZM967.032 175.154C966.316 175.154 965.692 174.99 965.158 174.662C964.624 174.334 964.21 173.875 963.915 173.285C963.62 172.695 963.473 172.005 963.473 171.217C963.473 170.424 963.62 169.732 963.915 169.138C964.21 168.545 964.624 168.085 965.158 167.756C965.692 167.428 966.316 167.264 967.032 167.264C967.748 167.264 968.373 167.428 968.907 167.756C969.44 168.085 969.855 168.545 970.15 169.138C970.444 169.732 970.592 170.424 970.592 171.217C970.592 172.005 970.444 172.695 970.15 173.285C969.855 173.875 969.44 174.334 968.907 174.662C968.373 174.99 967.748 175.154 967.032 175.154ZM967.037 173.906C967.501 173.906 967.886 173.784 968.191 173.538C968.496 173.293 968.721 172.967 968.867 172.559C969.016 172.151 969.091 171.702 969.091 171.212C969.091 170.724 969.016 170.277 968.867 169.869C968.721 169.458 968.496 169.129 968.191 168.88C967.886 168.631 967.501 168.507 967.037 168.507C966.57 168.507 966.182 168.631 965.874 168.88C965.569 169.129 965.342 169.458 965.193 169.869C965.047 170.277 964.974 170.724 964.974 171.212C964.974 171.702 965.047 172.151 965.193 172.559C965.342 172.967 965.569 173.293 965.874 173.538C966.182 173.784 966.57 173.906 967.037 173.906ZM977.974 169.228L976.626 169.467C976.57 169.294 976.48 169.13 976.358 168.974C976.238 168.819 976.076 168.691 975.871 168.592C975.665 168.492 975.408 168.442 975.1 168.442C974.679 168.442 974.328 168.537 974.046 168.726C973.764 168.911 973.623 169.152 973.623 169.447C973.623 169.702 973.718 169.907 973.907 170.063C974.096 170.219 974.401 170.347 974.822 170.446L976.035 170.724C976.737 170.887 977.261 171.137 977.606 171.475C977.95 171.813 978.123 172.252 978.123 172.793C978.123 173.25 977.99 173.658 977.725 174.016C977.463 174.37 977.097 174.649 976.626 174.851C976.159 175.053 975.617 175.154 975.001 175.154C974.145 175.154 973.448 174.972 972.907 174.607C972.367 174.239 972.036 173.717 971.913 173.041L973.35 172.822C973.439 173.197 973.623 173.48 973.902 173.673C974.18 173.862 974.543 173.956 974.991 173.956C975.478 173.956 975.867 173.855 976.159 173.653C976.451 173.447 976.596 173.197 976.596 172.902C976.596 172.663 976.507 172.463 976.328 172.3C976.152 172.138 975.882 172.015 975.518 171.933L974.225 171.649C973.512 171.487 972.985 171.228 972.644 170.874C972.306 170.519 972.137 170.07 972.137 169.526C972.137 169.076 972.263 168.681 972.515 168.343C972.767 168.005 973.115 167.741 973.559 167.553C974.003 167.36 974.512 167.264 975.085 167.264C975.91 167.264 976.56 167.443 977.034 167.801C977.508 168.156 977.821 168.631 977.974 169.228ZM981.979 175.169C981.496 175.169 981.058 175.08 980.667 174.901C980.276 174.718 979.966 174.455 979.737 174.11C979.512 173.765 979.399 173.343 979.399 172.842C979.399 172.411 979.482 172.057 979.648 171.778C979.813 171.5 980.037 171.28 980.319 171.117C980.601 170.955 980.915 170.832 981.263 170.749C981.612 170.666 981.966 170.603 982.327 170.56C982.785 170.507 983.156 170.464 983.441 170.431C983.726 170.395 983.933 170.337 984.062 170.257C984.192 170.178 984.256 170.048 984.256 169.869V169.835C984.256 169.4 984.134 169.064 983.888 168.825C983.647 168.587 983.285 168.467 982.805 168.467C982.304 168.467 981.91 168.578 981.621 168.8C981.336 169.019 981.139 169.263 981.03 169.531L979.633 169.213C979.799 168.749 980.04 168.375 980.359 168.089C980.68 167.801 981.05 167.592 981.467 167.463C981.885 167.33 982.324 167.264 982.785 167.264C983.09 167.264 983.413 167.301 983.754 167.374C984.099 167.443 984.42 167.572 984.719 167.761C985.02 167.95 985.267 168.22 985.46 168.572C985.652 168.92 985.748 169.372 985.748 169.929V175H984.296V173.956H984.237C984.14 174.148 983.996 174.337 983.804 174.523C983.612 174.708 983.365 174.862 983.063 174.985C982.762 175.108 982.4 175.169 981.979 175.169ZM982.303 173.976C982.714 173.976 983.065 173.895 983.357 173.732C983.652 173.57 983.875 173.358 984.028 173.096C984.183 172.831 984.261 172.547 984.261 172.246V171.261C984.208 171.314 984.106 171.364 983.953 171.411C983.804 171.454 983.633 171.492 983.441 171.525C983.249 171.555 983.062 171.583 982.879 171.609C982.697 171.633 982.545 171.652 982.422 171.669C982.134 171.705 981.87 171.767 981.631 171.853C981.396 171.939 981.207 172.063 981.065 172.226C980.925 172.385 980.856 172.597 980.856 172.862C980.856 173.23 980.992 173.509 981.263 173.697C981.535 173.883 981.882 173.976 982.303 173.976ZM989.214 164.818V175H987.728V164.818H989.214Z" fill="#323E64"/>
<path d="M502.532 27.3636L499.763 35H498.172L495.398 27.3636H496.994L498.928 33.2401H499.007L500.936 27.3636H502.532ZM506.96 35.1541C506.208 35.1541 505.56 34.9934 505.017 34.6719C504.476 34.3471 504.059 33.8913 503.764 33.3047C503.472 32.7147 503.326 32.0237 503.326 31.2315C503.326 30.4493 503.472 29.7599 503.764 29.1634C504.059 28.5668 504.47 28.1011 504.997 27.7663C505.527 27.4316 506.147 27.2642 506.856 27.2642C507.287 27.2642 507.704 27.3355 508.109 27.478C508.513 27.6205 508.876 27.8442 509.198 28.1491C509.519 28.4541 509.773 28.8501 509.958 29.3374C510.144 29.8213 510.237 30.4096 510.237 31.1023V31.6293H504.166V30.5156H508.78C508.78 30.1245 508.7 29.7782 508.541 29.4766C508.382 29.1716 508.159 28.9313 507.87 28.7557C507.585 28.58 507.25 28.4922 506.866 28.4922C506.448 28.4922 506.084 28.5949 505.772 28.8004C505.464 29.0026 505.225 29.2678 505.056 29.5959C504.891 29.9207 504.808 30.2737 504.808 30.6548V31.5249C504.808 32.0353 504.897 32.4695 505.076 32.8274C505.258 33.1854 505.512 33.4588 505.837 33.6477C506.162 33.8333 506.541 33.9261 506.975 33.9261C507.257 33.9261 507.514 33.8864 507.746 33.8068C507.978 33.724 508.178 33.6013 508.347 33.4389C508.517 33.2765 508.646 33.076 508.735 32.8374L510.142 33.0909C510.03 33.5052 509.827 33.8681 509.536 34.1797C509.247 34.4879 508.884 34.7282 508.447 34.9006C508.013 35.0696 507.517 35.1541 506.96 35.1541ZM511.886 35V27.3636H513.323V28.5767H513.402C513.542 28.1657 513.787 27.8426 514.138 27.6072C514.493 27.3686 514.894 27.2493 515.341 27.2493C515.434 27.2493 515.543 27.2526 515.669 27.2592C515.799 27.2659 515.9 27.2741 515.973 27.2841V28.706C515.913 28.6894 515.807 28.6712 515.654 28.6513C515.502 28.6281 515.35 28.6165 515.197 28.6165C514.846 28.6165 514.533 28.6911 514.257 28.8402C513.986 28.986 513.77 29.1899 513.611 29.4517C513.452 29.7102 513.373 30.0052 513.373 30.3366V35H511.886ZM517.259 35V27.3636H518.746V35H517.259ZM518.01 26.1854C517.751 26.1854 517.529 26.0992 517.344 25.9268C517.161 25.7512 517.07 25.5424 517.07 25.3004C517.07 25.0552 517.161 24.8464 517.344 24.674C517.529 24.4983 517.751 24.4105 518.01 24.4105C518.268 24.4105 518.489 24.4983 518.671 24.674C518.857 24.8464 518.949 25.0552 518.949 25.3004C518.949 25.5424 518.857 25.7512 518.671 25.9268C518.489 26.0992 518.268 26.1854 518.01 26.1854ZM524.38 27.3636V28.5568H520.064V27.3636H524.38ZM521.248 35V26.4787C521.248 26.0014 521.352 25.6053 521.561 25.2905C521.77 24.9723 522.046 24.7353 522.391 24.5795C522.736 24.4205 523.11 24.3409 523.515 24.3409C523.813 24.3409 524.068 24.3658 524.28 24.4155C524.492 24.4619 524.65 24.505 524.752 24.5447L524.404 25.7479C524.335 25.728 524.245 25.7048 524.136 25.6783C524.027 25.6484 523.894 25.6335 523.738 25.6335C523.377 25.6335 523.118 25.723 522.963 25.902C522.81 26.081 522.734 26.3395 522.734 26.6776V35H521.248ZM525.913 35V27.3636H527.4V35H525.913ZM526.664 26.1854C526.406 26.1854 526.183 26.0992 525.998 25.9268C525.816 25.7512 525.724 25.5424 525.724 25.3004C525.724 25.0552 525.816 24.8464 525.998 24.674C526.183 24.4983 526.406 24.4105 526.664 24.4105C526.923 24.4105 527.143 24.4983 527.325 24.674C527.511 24.8464 527.604 25.0552 527.604 25.3004C527.604 25.5424 527.511 25.7512 527.325 25.9268C527.143 26.0992 526.923 26.1854 526.664 26.1854ZM532.616 35.1541C531.877 35.1541 531.241 34.9867 530.707 34.652C530.177 34.3139 529.769 33.8482 529.484 33.255C529.199 32.6617 529.057 31.9822 529.057 31.2166C529.057 30.4411 529.202 29.7566 529.494 29.1634C529.786 28.5668 530.197 28.1011 530.727 27.7663C531.257 27.4316 531.882 27.2642 532.601 27.2642C533.181 27.2642 533.698 27.3719 534.153 27.5874C534.607 27.7995 534.973 28.0978 535.251 28.4822C535.533 28.8667 535.7 29.3158 535.753 29.8295H534.307C534.227 29.4716 534.045 29.1634 533.76 28.9048C533.478 28.6463 533.1 28.517 532.626 28.517C532.212 28.517 531.849 28.6264 531.537 28.8452C531.229 29.0606 530.989 29.3688 530.817 29.7699C530.644 30.1676 530.558 30.6383 530.558 31.1818C530.558 31.7386 530.643 32.2192 530.812 32.6236C530.981 33.0279 531.219 33.3411 531.528 33.5632C531.839 33.7853 532.205 33.8963 532.626 33.8963C532.908 33.8963 533.163 33.8449 533.392 33.7422C533.624 33.6361 533.818 33.4853 533.974 33.2898C534.133 33.0942 534.244 32.8589 534.307 32.5838H535.753C535.7 33.0777 535.54 33.5185 535.271 33.9062C535.003 34.294 534.643 34.599 534.192 34.821C533.745 35.0431 533.22 35.1541 532.616 35.1541ZM539.565 35.169C539.081 35.169 538.644 35.0795 538.253 34.9006C537.862 34.7183 537.552 34.4548 537.323 34.1101C537.098 33.7654 536.985 33.3428 536.985 32.8423C536.985 32.4115 537.068 32.0568 537.234 31.7784C537.399 31.5 537.623 31.2796 537.905 31.1172C538.187 30.9548 538.501 30.8321 538.849 30.7493C539.197 30.6664 539.552 30.6035 539.913 30.5604C540.371 30.5073 540.742 30.4643 541.027 30.4311C541.312 30.3946 541.519 30.3366 541.648 30.2571C541.778 30.1776 541.842 30.0483 541.842 29.8693V29.8345C541.842 29.4003 541.72 29.0639 541.474 28.8253C541.232 28.5866 540.871 28.4673 540.391 28.4673C539.89 28.4673 539.496 28.5784 539.207 28.8004C538.922 29.0192 538.725 29.2628 538.616 29.5312L537.219 29.2131C537.384 28.7491 537.626 28.3745 537.945 28.0895C538.266 27.8011 538.636 27.5923 539.053 27.4631C539.471 27.3305 539.91 27.2642 540.371 27.2642C540.676 27.2642 540.999 27.3007 541.34 27.3736C541.685 27.4432 542.006 27.5724 542.305 27.7614C542.606 27.9503 542.853 28.2204 543.045 28.5717C543.238 28.9197 543.334 29.3722 543.334 29.929V35H541.882V33.956H541.822C541.726 34.1482 541.582 34.3371 541.39 34.5227C541.198 34.7083 540.951 34.8625 540.649 34.9851C540.348 35.1077 539.986 35.169 539.565 35.169ZM539.888 33.9759C540.299 33.9759 540.651 33.8946 540.942 33.7322C541.237 33.5698 541.461 33.3577 541.614 33.0959C541.769 32.8307 541.847 32.5473 541.847 32.2457V31.2614C541.794 31.3144 541.692 31.3641 541.539 31.4105C541.39 31.4536 541.219 31.4917 541.027 31.5249C540.835 31.5547 540.647 31.5829 540.465 31.6094C540.283 31.6326 540.13 31.6525 540.008 31.669C539.719 31.7055 539.456 31.7668 539.217 31.853C538.982 31.9392 538.793 32.0634 538.651 32.2259C538.511 32.3849 538.442 32.5971 538.442 32.8622C538.442 33.2301 538.578 33.5085 538.849 33.6974C539.121 33.883 539.468 33.9759 539.888 33.9759ZM548.878 27.3636V28.5568H544.707V27.3636H548.878ZM545.826 25.5341H547.312V32.7578C547.312 33.0462 547.355 33.2633 547.442 33.4091C547.528 33.5516 547.639 33.6494 547.775 33.7024C547.914 33.7521 548.065 33.777 548.227 33.777C548.346 33.777 548.451 33.7687 548.54 33.7521C548.63 33.7356 548.699 33.7223 548.749 33.7124L549.018 34.9403C548.931 34.9735 548.809 35.0066 548.65 35.0398C548.491 35.0762 548.292 35.0961 548.053 35.0994C547.662 35.1061 547.297 35.0365 546.959 34.8906C546.621 34.7448 546.348 34.5194 546.139 34.2145C545.93 33.9096 545.826 33.5268 545.826 33.0661V25.5341ZM550.523 35V27.3636H552.009V35H550.523ZM551.273 26.1854C551.015 26.1854 550.793 26.0992 550.607 25.9268C550.425 25.7512 550.334 25.5424 550.334 25.3004C550.334 25.0552 550.425 24.8464 550.607 24.674C550.793 24.4983 551.015 24.4105 551.273 24.4105C551.532 24.4105 551.752 24.4983 551.935 24.674C552.12 24.8464 552.213 25.0552 552.213 25.3004C552.213 25.5424 552.12 25.7512 551.935 25.9268C551.752 26.0992 551.532 26.1854 551.273 26.1854ZM557.226 35.1541C556.51 35.1541 555.885 34.9901 555.351 34.6619C554.818 34.3338 554.403 33.8748 554.108 33.2848C553.814 32.6948 553.666 32.0054 553.666 31.2166C553.666 30.4245 553.814 29.7318 554.108 29.1385C554.403 28.5452 554.818 28.0845 555.351 27.7564C555.885 27.4283 556.51 27.2642 557.226 27.2642C557.942 27.2642 558.566 27.4283 559.1 27.7564C559.634 28.0845 560.048 28.5452 560.343 29.1385C560.638 29.7318 560.785 30.4245 560.785 31.2166C560.785 32.0054 560.638 32.6948 560.343 33.2848C560.048 33.8748 559.634 34.3338 559.1 34.6619C558.566 34.9901 557.942 35.1541 557.226 35.1541ZM557.231 33.9062C557.695 33.9062 558.079 33.7836 558.384 33.5384C558.689 33.2931 558.914 32.9666 559.06 32.5589C559.209 32.1513 559.284 31.7022 559.284 31.2116C559.284 30.7244 559.209 30.277 559.06 29.8693C558.914 29.4583 558.689 29.1286 558.384 28.88C558.079 28.6314 557.695 28.5071 557.231 28.5071C556.763 28.5071 556.376 28.6314 556.067 28.88C555.762 29.1286 555.535 29.4583 555.386 29.8693C555.24 30.277 555.167 30.7244 555.167 31.2116C555.167 31.7022 555.24 32.1513 555.386 32.5589C555.535 32.9666 555.762 33.2931 556.067 33.5384C556.376 33.7836 556.763 33.9062 557.231 33.9062ZM563.931 30.4659V35H562.445V27.3636H563.871V28.6065H563.966C564.142 28.2022 564.417 27.8774 564.791 27.6321C565.169 27.3868 565.645 27.2642 566.218 27.2642C566.738 27.2642 567.194 27.3736 567.585 27.5923C567.976 27.8078 568.28 28.1293 568.495 28.5568C568.71 28.9844 568.818 29.513 568.818 30.1428V35H567.332V30.3217C567.332 29.7682 567.188 29.3357 566.899 29.0241C566.611 28.7093 566.215 28.5518 565.711 28.5518C565.366 28.5518 565.06 28.6264 564.791 28.7756C564.526 28.9247 564.316 29.1435 564.16 29.4318C564.007 29.7169 563.931 30.0616 563.931 30.4659Z" fill="#323E64"/>
<path d="M911.722 535.228L910.374 535.467C910.318 535.294 910.228 535.13 910.106 534.974C909.987 534.819 909.824 534.691 909.619 534.592C909.413 534.492 909.156 534.442 908.848 534.442C908.427 534.442 908.076 534.537 907.794 534.726C907.512 534.911 907.371 535.152 907.371 535.447C907.371 535.702 907.466 535.907 907.655 536.063C907.844 536.219 908.149 536.347 908.57 536.446L909.783 536.724C910.485 536.887 911.009 537.137 911.354 537.475C911.698 537.813 911.871 538.252 911.871 538.793C911.871 539.25 911.738 539.658 911.473 540.016C911.211 540.37 910.845 540.649 910.374 540.851C909.907 541.053 909.365 541.154 908.749 541.154C907.893 541.154 907.196 540.972 906.656 540.607C906.115 540.239 905.784 539.717 905.661 539.041L907.098 538.822C907.188 539.197 907.371 539.48 907.65 539.673C907.928 539.862 908.291 539.956 908.739 539.956C909.226 539.956 909.615 539.855 909.907 539.653C910.199 539.447 910.344 539.197 910.344 538.902C910.344 538.663 910.255 538.463 910.076 538.3C909.9 538.138 909.63 538.015 909.266 537.933L907.973 537.649C907.26 537.487 906.733 537.228 906.392 536.874C906.054 536.519 905.885 536.07 905.885 535.526C905.885 535.076 906.011 534.681 906.263 534.343C906.515 534.005 906.863 533.741 907.307 533.553C907.751 533.36 908.26 533.264 908.833 533.264C909.658 533.264 910.308 533.443 910.782 533.801C911.256 534.156 911.569 534.631 911.722 535.228ZM916.722 541.154C916.006 541.154 915.381 540.99 914.847 540.662C914.314 540.334 913.9 539.875 913.605 539.285C913.31 538.695 913.162 538.005 913.162 537.217C913.162 536.424 913.31 535.732 913.605 535.138C913.9 534.545 914.314 534.085 914.847 533.756C915.381 533.428 916.006 533.264 916.722 533.264C917.438 533.264 918.062 533.428 918.596 533.756C919.13 534.085 919.544 534.545 919.839 535.138C920.134 535.732 920.281 536.424 920.281 537.217C920.281 538.005 920.134 538.695 919.839 539.285C919.544 539.875 919.13 540.334 918.596 540.662C918.062 540.99 917.438 541.154 916.722 541.154ZM916.727 539.906C917.191 539.906 917.575 539.784 917.88 539.538C918.185 539.293 918.41 538.967 918.556 538.559C918.705 538.151 918.78 537.702 918.78 537.212C918.78 536.724 918.705 536.277 918.556 535.869C918.41 535.458 918.185 535.129 917.88 534.88C917.575 534.631 917.191 534.507 916.727 534.507C916.259 534.507 915.872 534.631 915.563 534.88C915.258 535.129 915.031 535.458 914.882 535.869C914.736 536.277 914.664 536.724 914.664 537.212C914.664 537.702 914.736 538.151 914.882 538.559C915.031 538.967 915.258 539.293 915.563 539.538C915.872 539.784 916.259 539.906 916.727 539.906ZM923.427 530.818V541H921.941V530.818H923.427ZM930.264 537.833V533.364H931.756V541H930.294V539.678H930.215C930.039 540.085 929.757 540.425 929.369 540.697C928.985 540.965 928.506 541.099 927.933 541.099C927.442 541.099 927.008 540.992 926.63 540.776C926.256 540.558 925.961 540.234 925.745 539.807C925.533 539.379 925.427 538.851 925.427 538.221V533.364H926.914V538.042C926.914 538.562 927.058 538.977 927.346 539.285C927.634 539.593 928.009 539.747 928.47 539.747C928.748 539.747 929.025 539.678 929.3 539.538C929.578 539.399 929.809 539.189 929.991 538.907C930.177 538.625 930.268 538.267 930.264 537.833ZM937.318 533.364V534.557H933.147V533.364H937.318ZM934.265 531.534H935.752V538.758C935.752 539.046 935.795 539.263 935.881 539.409C935.967 539.552 936.078 539.649 936.214 539.702C936.353 539.752 936.504 539.777 936.667 539.777C936.786 539.777 936.89 539.769 936.98 539.752C937.069 539.736 937.139 539.722 937.189 539.712L937.457 540.94C937.371 540.973 937.248 541.007 937.089 541.04C936.93 541.076 936.731 541.096 936.493 541.099C936.101 541.106 935.737 541.036 935.399 540.891C935.061 540.745 934.787 540.519 934.578 540.214C934.37 539.91 934.265 539.527 934.265 539.066V531.534ZM938.962 541V533.364H940.449V541H938.962ZM939.713 532.185C939.454 532.185 939.232 532.099 939.047 531.927C938.864 531.751 938.773 531.542 938.773 531.3C938.773 531.055 938.864 530.846 939.047 530.674C939.232 530.498 939.454 530.411 939.713 530.411C939.971 530.411 940.192 530.498 940.374 530.674C940.56 530.846 940.653 531.055 940.653 531.3C940.653 531.542 940.56 531.751 940.374 531.927C940.192 532.099 939.971 532.185 939.713 532.185ZM945.665 541.154C944.949 541.154 944.324 540.99 943.791 540.662C943.257 540.334 942.843 539.875 942.548 539.285C942.253 538.695 942.105 538.005 942.105 537.217C942.105 536.424 942.253 535.732 942.548 535.138C942.843 534.545 943.257 534.085 943.791 533.756C944.324 533.428 944.949 533.264 945.665 533.264C946.381 533.264 947.006 533.428 947.539 533.756C948.073 534.085 948.487 534.545 948.782 535.138C949.077 535.732 949.225 536.424 949.225 537.217C949.225 538.005 949.077 538.695 948.782 539.285C948.487 539.875 948.073 540.334 947.539 540.662C947.006 540.99 946.381 541.154 945.665 541.154ZM945.67 539.906C946.134 539.906 946.519 539.784 946.824 539.538C947.128 539.293 947.354 538.967 947.5 538.559C947.649 538.151 947.723 537.702 947.723 537.212C947.723 536.724 947.649 536.277 947.5 535.869C947.354 535.458 947.128 535.129 946.824 534.88C946.519 534.631 946.134 534.507 945.67 534.507C945.203 534.507 944.815 534.631 944.507 534.88C944.202 535.129 943.975 535.458 943.826 535.869C943.68 536.277 943.607 536.724 943.607 537.212C943.607 537.702 943.68 538.151 943.826 538.559C943.975 538.967 944.202 539.293 944.507 539.538C944.815 539.784 945.203 539.906 945.67 539.906ZM952.371 536.466V541H950.884V533.364H952.311V534.607H952.405C952.581 534.202 952.856 533.877 953.231 533.632C953.608 533.387 954.084 533.264 954.657 533.264C955.178 533.264 955.634 533.374 956.025 533.592C956.416 533.808 956.719 534.129 956.934 534.557C957.15 534.984 957.258 535.513 957.258 536.143V541H955.771V536.322C955.771 535.768 955.627 535.336 955.339 535.024C955.05 534.709 954.654 534.552 954.15 534.552C953.806 534.552 953.499 534.626 953.231 534.776C952.965 534.925 952.755 535.143 952.599 535.432C952.447 535.717 952.371 536.062 952.371 536.466Z" fill="#323E64"/>
<path d="M910.722 326.228L909.374 326.467C909.318 326.294 909.228 326.13 909.106 325.974C908.987 325.819 908.824 325.691 908.619 325.592C908.413 325.492 908.156 325.442 907.848 325.442C907.427 325.442 907.076 325.537 906.794 325.726C906.512 325.911 906.371 326.152 906.371 326.447C906.371 326.702 906.466 326.907 906.655 327.063C906.844 327.219 907.149 327.347 907.57 327.446L908.783 327.724C909.485 327.887 910.009 328.137 910.354 328.475C910.698 328.813 910.871 329.252 910.871 329.793C910.871 330.25 910.738 330.658 910.473 331.016C910.211 331.37 909.845 331.649 909.374 331.851C908.907 332.053 908.365 332.154 907.749 332.154C906.893 332.154 906.196 331.972 905.656 331.607C905.115 331.239 904.784 330.717 904.661 330.041L906.098 329.822C906.188 330.197 906.371 330.48 906.65 330.673C906.928 330.862 907.291 330.956 907.739 330.956C908.226 330.956 908.615 330.855 908.907 330.653C909.199 330.447 909.344 330.197 909.344 329.902C909.344 329.663 909.255 329.463 909.076 329.3C908.9 329.138 908.63 329.015 908.266 328.933L906.973 328.649C906.26 328.487 905.733 328.228 905.392 327.874C905.054 327.519 904.885 327.07 904.885 326.526C904.885 326.076 905.011 325.681 905.263 325.343C905.515 325.005 905.863 324.741 906.307 324.553C906.751 324.36 907.26 324.264 907.833 324.264C908.658 324.264 909.308 324.443 909.782 324.801C910.256 325.156 910.569 325.631 910.722 326.228ZM917.343 328.833V324.364H918.834V332H917.372V330.678H917.293C917.117 331.085 916.835 331.425 916.448 331.697C916.063 331.965 915.584 332.099 915.011 332.099C914.52 332.099 914.086 331.992 913.708 331.776C913.334 331.558 913.039 331.234 912.823 330.807C912.611 330.379 912.505 329.851 912.505 329.221V324.364H913.992V329.042C913.992 329.562 914.136 329.977 914.424 330.285C914.713 330.593 915.087 330.747 915.548 330.747C915.826 330.747 916.103 330.678 916.378 330.538C916.656 330.399 916.887 330.189 917.069 329.907C917.255 329.625 917.346 329.267 917.343 328.833ZM920.831 334.864V324.364H922.283V325.602H922.407C922.493 325.442 922.618 325.259 922.78 325.05C922.943 324.841 923.168 324.659 923.456 324.503C923.745 324.344 924.126 324.264 924.6 324.264C925.216 324.264 925.766 324.42 926.25 324.732C926.734 325.043 927.114 325.492 927.389 326.079C927.667 326.665 927.806 327.371 927.806 328.197C927.806 329.022 927.669 329.73 927.394 330.32C927.119 330.906 926.741 331.359 926.26 331.677C925.78 331.992 925.231 332.149 924.615 332.149C924.151 332.149 923.771 332.071 923.476 331.915C923.185 331.76 922.956 331.577 922.79 331.369C922.624 331.16 922.497 330.974 922.407 330.812H922.318V334.864H920.831ZM922.288 328.182C922.288 328.719 922.366 329.189 922.522 329.594C922.677 329.998 922.903 330.315 923.198 330.543C923.493 330.769 923.854 330.881 924.282 330.881C924.726 330.881 925.097 330.764 925.395 330.528C925.694 330.29 925.919 329.967 926.071 329.559C926.227 329.151 926.305 328.692 926.305 328.182C926.305 327.678 926.229 327.226 926.076 326.825C925.927 326.424 925.702 326.107 925.4 325.875C925.102 325.643 924.729 325.527 924.282 325.527C923.851 325.527 923.486 325.638 923.188 325.86C922.893 326.082 922.669 326.392 922.517 326.79C922.364 327.187 922.288 327.652 922.288 328.182ZM929.472 334.864V324.364H930.924V325.602H931.048C931.134 325.442 931.258 325.259 931.421 325.05C931.583 324.841 931.809 324.659 932.097 324.503C932.385 324.344 932.766 324.264 933.24 324.264C933.857 324.264 934.407 324.42 934.891 324.732C935.375 325.043 935.754 325.492 936.029 326.079C936.308 326.665 936.447 327.371 936.447 328.197C936.447 329.022 936.31 329.73 936.034 330.32C935.759 330.906 935.382 331.359 934.901 331.677C934.42 331.992 933.872 332.149 933.255 332.149C932.791 332.149 932.412 332.071 932.117 331.915C931.825 331.76 931.596 331.577 931.431 331.369C931.265 331.16 931.137 330.974 931.048 330.812H930.958V334.864H929.472ZM930.929 328.182C930.929 328.719 931.007 329.189 931.162 329.594C931.318 329.998 931.543 330.315 931.838 330.543C932.133 330.769 932.495 330.881 932.922 330.881C933.366 330.881 933.738 330.764 934.036 330.528C934.334 330.29 934.56 329.967 934.712 329.559C934.868 329.151 934.946 328.692 934.946 328.182C934.946 327.678 934.869 327.226 934.717 326.825C934.568 326.424 934.342 326.107 934.041 325.875C933.743 325.643 933.37 325.527 932.922 325.527C932.491 325.527 932.127 325.638 931.828 325.86C931.533 326.082 931.31 326.392 931.157 326.79C931.005 327.187 930.929 327.652 930.929 328.182ZM939.599 321.818V332H938.113V321.818H939.599ZM944.89 332.154C944.138 332.154 943.49 331.993 942.946 331.672C942.406 331.347 941.988 330.891 941.693 330.305C941.402 329.715 941.256 329.024 941.256 328.232C941.256 327.449 941.402 326.76 941.693 326.163C941.988 325.567 942.399 325.101 942.926 324.766C943.457 324.432 944.076 324.264 944.786 324.264C945.217 324.264 945.634 324.335 946.039 324.478C946.443 324.621 946.806 324.844 947.127 325.149C947.449 325.454 947.702 325.85 947.888 326.337C948.074 326.821 948.166 327.41 948.166 328.102V328.629H942.096V327.516H946.71C946.71 327.125 946.63 326.778 946.471 326.477C946.312 326.172 946.088 325.931 945.8 325.756C945.515 325.58 945.18 325.492 944.796 325.492C944.378 325.492 944.013 325.595 943.702 325.8C943.394 326.003 943.155 326.268 942.986 326.596C942.82 326.921 942.737 327.274 942.737 327.655V328.525C942.737 329.035 942.827 329.469 943.006 329.827C943.188 330.185 943.442 330.459 943.767 330.648C944.091 330.833 944.471 330.926 944.905 330.926C945.187 330.926 945.444 330.886 945.676 330.807C945.908 330.724 946.108 330.601 946.277 330.439C946.446 330.277 946.575 330.076 946.665 329.837L948.072 330.091C947.959 330.505 947.757 330.868 947.465 331.18C947.177 331.488 946.814 331.728 946.377 331.901C945.942 332.07 945.447 332.154 944.89 332.154ZM949.816 332V324.364H951.243V325.607H951.337C951.496 325.186 951.756 324.857 952.118 324.622C952.479 324.384 952.911 324.264 953.415 324.264C953.926 324.264 954.353 324.384 954.698 324.622C955.046 324.861 955.303 325.189 955.468 325.607H955.548C955.73 325.199 956.02 324.874 956.418 324.632C956.816 324.387 957.29 324.264 957.84 324.264C958.533 324.264 959.098 324.481 959.535 324.915C959.976 325.35 960.196 326.004 960.196 326.879V332H958.71V327.018C958.71 326.501 958.569 326.127 958.287 325.895C958.006 325.663 957.669 325.547 957.278 325.547C956.794 325.547 956.418 325.696 956.15 325.994C955.881 326.289 955.747 326.669 955.747 327.133V332H954.265V326.924C954.265 326.51 954.136 326.177 953.877 325.925C953.619 325.673 953.283 325.547 952.868 325.547C952.587 325.547 952.326 325.621 952.088 325.771C951.852 325.916 951.662 326.12 951.516 326.382C951.373 326.644 951.302 326.947 951.302 327.292V332H949.816ZM965.48 332.154C964.728 332.154 964.08 331.993 963.536 331.672C962.996 331.347 962.578 330.891 962.283 330.305C961.992 329.715 961.846 329.024 961.846 328.232C961.846 327.449 961.992 326.76 962.283 326.163C962.578 325.567 962.989 325.101 963.516 324.766C964.046 324.432 964.666 324.264 965.376 324.264C965.806 324.264 966.224 324.335 966.628 324.478C967.033 324.621 967.396 324.844 967.717 325.149C968.039 325.454 968.292 325.85 968.478 326.337C968.663 326.821 968.756 327.41 968.756 328.102V328.629H962.686V327.516H967.3C967.3 327.125 967.22 326.778 967.061 326.477C966.902 326.172 966.678 325.931 966.39 325.756C966.105 325.58 965.77 325.492 965.385 325.492C964.968 325.492 964.603 325.595 964.292 325.8C963.983 326.003 963.745 326.268 963.576 326.596C963.41 326.921 963.327 327.274 963.327 327.655V328.525C963.327 329.035 963.417 329.469 963.596 329.827C963.778 330.185 964.032 330.459 964.356 330.648C964.681 330.833 965.061 330.926 965.495 330.926C965.777 330.926 966.033 330.886 966.265 330.807C966.497 330.724 966.698 330.601 966.867 330.439C967.036 330.277 967.165 330.076 967.255 329.837L968.662 330.091C968.549 330.505 968.347 330.868 968.055 331.18C967.767 331.488 967.404 331.728 966.966 331.901C966.532 332.07 966.037 332.154 965.48 332.154ZM971.892 327.466V332H970.406V324.364H971.832V325.607H971.927C972.103 325.202 972.378 324.877 972.752 324.632C973.13 324.387 973.606 324.264 974.179 324.264C974.699 324.264 975.155 324.374 975.546 324.592C975.937 324.808 976.241 325.129 976.456 325.557C976.671 325.984 976.779 326.513 976.779 327.143V332H975.293V327.322C975.293 326.768 975.148 326.336 974.86 326.024C974.572 325.709 974.176 325.552 973.672 325.552C973.327 325.552 973.021 325.626 972.752 325.776C972.487 325.925 972.277 326.143 972.121 326.432C971.968 326.717 971.892 327.062 971.892 327.466ZM982.337 324.364V325.557H978.166V324.364H982.337ZM979.285 322.534H980.771V329.758C980.771 330.046 980.814 330.263 980.901 330.409C980.987 330.552 981.098 330.649 981.234 330.702C981.373 330.752 981.524 330.777 981.686 330.777C981.805 330.777 981.91 330.769 981.999 330.752C982.089 330.736 982.158 330.722 982.208 330.712L982.477 331.94C982.39 331.973 982.268 332.007 982.109 332.04C981.95 332.076 981.751 332.096 981.512 332.099C981.121 332.106 980.756 332.036 980.418 331.891C980.08 331.745 979.807 331.519 979.598 331.214C979.389 330.91 979.285 330.527 979.285 330.066V322.534ZM986.204 332.169C985.72 332.169 985.283 332.08 984.892 331.901C984.5 331.718 984.191 331.455 983.962 331.11C983.736 330.765 983.624 330.343 983.624 329.842C983.624 329.411 983.707 329.057 983.872 328.778C984.038 328.5 984.262 328.28 984.544 328.117C984.825 327.955 985.14 327.832 985.488 327.749C985.836 327.666 986.191 327.603 986.552 327.56C987.009 327.507 987.381 327.464 987.666 327.431C987.951 327.395 988.158 327.337 988.287 327.257C988.416 327.178 988.481 327.048 988.481 326.869V326.835C988.481 326.4 988.358 326.064 988.113 325.825C987.871 325.587 987.51 325.467 987.029 325.467C986.529 325.467 986.134 325.578 985.846 325.8C985.561 326.019 985.364 326.263 985.254 326.531L983.857 326.213C984.023 325.749 984.265 325.375 984.583 325.089C984.905 324.801 985.274 324.592 985.692 324.463C986.11 324.33 986.549 324.264 987.009 324.264C987.314 324.264 987.637 324.301 987.979 324.374C988.324 324.443 988.645 324.572 988.943 324.761C989.245 324.95 989.492 325.22 989.684 325.572C989.876 325.92 989.972 326.372 989.972 326.929V332H988.521V330.956H988.461C988.365 331.148 988.221 331.337 988.029 331.523C987.836 331.708 987.589 331.862 987.288 331.985C986.986 332.108 986.625 332.169 986.204 332.169ZM986.527 330.976C986.938 330.976 987.289 330.895 987.581 330.732C987.876 330.57 988.1 330.358 988.252 330.096C988.408 329.831 988.486 329.547 988.486 329.246V328.261C988.433 328.314 988.33 328.364 988.178 328.411C988.029 328.454 987.858 328.492 987.666 328.525C987.473 328.555 987.286 328.583 987.104 328.609C986.922 328.633 986.769 328.652 986.646 328.669C986.358 328.705 986.095 328.767 985.856 328.853C985.621 328.939 985.432 329.063 985.289 329.226C985.15 329.385 985.08 329.597 985.08 329.862C985.08 330.23 985.216 330.509 985.488 330.697C985.76 330.883 986.106 330.976 986.527 330.976ZM995.517 324.364V325.557H991.346V324.364H995.517ZM992.464 322.534H993.951V329.758C993.951 330.046 993.994 330.263 994.08 330.409C994.166 330.552 994.277 330.649 994.413 330.702C994.553 330.752 994.703 330.777 994.866 330.777C994.985 330.777 995.089 330.769 995.179 330.752C995.268 330.736 995.338 330.722 995.388 330.712L995.656 331.94C995.57 331.973 995.447 332.007 995.288 332.04C995.129 332.076 994.93 332.096 994.692 332.099C994.301 332.106 993.936 332.036 993.598 331.891C993.26 331.745 992.987 331.519 992.778 331.214C992.569 330.91 992.464 330.527 992.464 330.066V322.534ZM997.161 332V324.364H998.648V332H997.161ZM997.912 323.185C997.654 323.185 997.432 323.099 997.246 322.927C997.064 322.751 996.972 322.542 996.972 322.3C996.972 322.055 997.064 321.846 997.246 321.674C997.432 321.498 997.654 321.411 997.912 321.411C998.171 321.411 998.391 321.498 998.573 321.674C998.759 321.846 998.852 322.055 998.852 322.3C998.852 322.542 998.759 322.751 998.573 322.927C998.391 323.099 998.171 323.185 997.912 323.185ZM1003.86 332.154C1003.15 332.154 1002.52 331.99 1001.99 331.662C1001.46 331.334 1001.04 330.875 1000.75 330.285C1000.45 329.695 1000.3 329.005 1000.3 328.217C1000.3 327.424 1000.45 326.732 1000.75 326.138C1001.04 325.545 1001.46 325.085 1001.99 324.756C1002.52 324.428 1003.15 324.264 1003.86 324.264C1004.58 324.264 1005.21 324.428 1005.74 324.756C1006.27 325.085 1006.69 325.545 1006.98 326.138C1007.28 326.732 1007.42 327.424 1007.42 328.217C1007.42 329.005 1007.28 329.695 1006.98 330.285C1006.69 330.875 1006.27 331.334 1005.74 331.662C1005.21 331.99 1004.58 332.154 1003.86 332.154ZM1003.87 330.906C1004.33 330.906 1004.72 330.784 1005.02 330.538C1005.33 330.293 1005.55 329.967 1005.7 329.559C1005.85 329.151 1005.92 328.702 1005.92 328.212C1005.92 327.724 1005.85 327.277 1005.7 326.869C1005.55 326.458 1005.33 326.129 1005.02 325.88C1004.72 325.631 1004.33 325.507 1003.87 325.507C1003.4 325.507 1003.01 325.631 1002.71 325.88C1002.4 326.129 1002.17 326.458 1002.02 326.869C1001.88 327.277 1001.81 327.724 1001.81 328.212C1001.81 328.702 1001.88 329.151 1002.02 329.559C1002.17 329.967 1002.4 330.293 1002.71 330.538C1003.01 330.784 1003.4 330.906 1003.87 330.906ZM1010.57 327.466V332H1009.08V324.364H1010.51V325.607H1010.6C1010.78 325.202 1011.06 324.877 1011.43 324.632C1011.81 324.387 1012.28 324.264 1012.86 324.264C1013.38 324.264 1013.83 324.374 1014.22 324.592C1014.61 324.808 1014.92 325.129 1015.13 325.557C1015.35 325.984 1015.46 326.513 1015.46 327.143V332H1013.97V327.322C1013.97 326.768 1013.83 326.336 1013.54 326.024C1013.25 325.709 1012.85 325.552 1012.35 325.552C1012 325.552 1011.7 325.626 1011.43 325.776C1011.16 325.925 1010.95 326.143 1010.8 326.432C1010.65 326.717 1010.57 327.062 1010.57 327.466Z" fill="#323E64"/>
<path d="M354.222 589.169C353.738 589.169 353.3 589.08 352.909 588.901C352.518 588.718 352.208 588.455 351.979 588.11C351.754 587.765 351.641 587.343 351.641 586.842C351.641 586.411 351.724 586.057 351.89 585.778C352.056 585.5 352.279 585.28 352.561 585.117C352.843 584.955 353.158 584.832 353.506 584.749C353.854 584.666 354.208 584.603 354.57 584.56C355.027 584.507 355.398 584.464 355.683 584.431C355.968 584.395 356.175 584.337 356.305 584.257C356.434 584.178 356.499 584.048 356.499 583.869V583.835C356.499 583.4 356.376 583.064 356.131 582.825C355.889 582.587 355.527 582.467 355.047 582.467C354.546 582.467 354.152 582.578 353.864 582.8C353.579 583.019 353.381 583.263 353.272 583.531L351.875 583.213C352.041 582.749 352.283 582.375 352.601 582.089C352.922 581.801 353.292 581.592 353.71 581.463C354.127 581.33 354.566 581.264 355.027 581.264C355.332 581.264 355.655 581.301 355.996 581.374C356.341 581.443 356.663 581.572 356.961 581.761C357.263 581.95 357.509 582.22 357.702 582.572C357.894 582.92 357.99 583.372 357.99 583.929V589H356.538V587.956H356.479C356.383 588.148 356.238 588.337 356.046 588.523C355.854 588.708 355.607 588.862 355.305 588.985C355.004 589.108 354.643 589.169 354.222 589.169ZM354.545 587.976C354.956 587.976 355.307 587.895 355.599 587.732C355.894 587.57 356.117 587.358 356.27 587.096C356.426 586.831 356.504 586.547 356.504 586.246V585.261C356.451 585.314 356.348 585.364 356.195 585.411C356.046 585.454 355.875 585.492 355.683 585.525C355.491 585.555 355.304 585.583 355.121 585.609C354.939 585.633 354.787 585.652 354.664 585.669C354.376 585.705 354.112 585.767 353.874 585.853C353.638 585.939 353.449 586.063 353.307 586.226C353.168 586.385 353.098 586.597 353.098 586.862C353.098 587.23 353.234 587.509 353.506 587.697C353.777 587.883 354.124 587.976 354.545 587.976ZM361.456 584.466V589H359.97V581.364H361.397V582.607H361.491C361.667 582.202 361.942 581.877 362.317 581.632C362.694 581.387 363.17 581.264 363.743 581.264C364.264 581.264 364.72 581.374 365.111 581.592C365.502 581.808 365.805 582.129 366.02 582.557C366.236 582.984 366.344 583.513 366.344 584.143V589H364.857V584.322C364.857 583.768 364.713 583.336 364.425 583.024C364.136 582.709 363.74 582.552 363.236 582.552C362.892 582.552 362.585 582.626 362.317 582.776C362.051 582.925 361.841 583.143 361.685 583.432C361.533 583.717 361.456 584.062 361.456 584.466ZM370.559 589.169C370.076 589.169 369.638 589.08 369.247 588.901C368.856 588.718 368.546 588.455 368.317 588.11C368.092 587.765 367.979 587.343 367.979 586.842C367.979 586.411 368.062 586.057 368.228 585.778C368.394 585.5 368.617 585.28 368.899 585.117C369.181 584.955 369.496 584.832 369.844 584.749C370.192 584.666 370.546 584.603 370.907 584.56C371.365 584.507 371.736 584.464 372.021 584.431C372.306 584.395 372.513 584.337 372.643 584.257C372.772 584.178 372.836 584.048 372.836 583.869V583.835C372.836 583.4 372.714 583.064 372.469 582.825C372.227 582.587 371.865 582.467 371.385 582.467C370.884 582.467 370.49 582.578 370.202 582.8C369.916 583.019 369.719 583.263 369.61 583.531L368.213 583.213C368.379 582.749 368.621 582.375 368.939 582.089C369.26 581.801 369.63 581.592 370.047 581.463C370.465 581.33 370.904 581.264 371.365 581.264C371.67 581.264 371.993 581.301 372.334 581.374C372.679 581.443 373.001 581.572 373.299 581.761C373.6 581.95 373.847 582.22 374.04 582.572C374.232 582.92 374.328 583.372 374.328 583.929V589H372.876V587.956H372.817C372.72 588.148 372.576 588.337 372.384 588.523C372.192 588.708 371.945 588.862 371.643 588.985C371.342 589.108 370.98 589.169 370.559 589.169ZM370.883 587.976C371.294 587.976 371.645 587.895 371.937 587.732C372.232 587.57 372.455 587.358 372.608 587.096C372.764 586.831 372.841 586.547 372.841 586.246V585.261C372.788 585.314 372.686 585.364 372.533 585.411C372.384 585.454 372.213 585.492 372.021 585.525C371.829 585.555 371.642 585.583 371.459 585.609C371.277 585.633 371.125 585.652 371.002 585.669C370.714 585.705 370.45 585.767 370.211 585.853C369.976 585.939 369.787 586.063 369.645 586.226C369.506 586.385 369.436 586.597 369.436 586.862C369.436 587.23 369.572 587.509 369.844 587.697C370.115 587.883 370.462 587.976 370.883 587.976ZM377.794 578.818V589H376.308V578.818H377.794ZM380.734 591.864C380.512 591.864 380.31 591.845 380.127 591.809C379.945 591.776 379.809 591.739 379.72 591.7L380.078 590.482C380.349 590.554 380.591 590.586 380.803 590.576C381.016 590.566 381.203 590.487 381.365 590.337C381.531 590.188 381.677 589.945 381.803 589.607L381.987 589.099L379.193 581.364H380.784L382.718 587.29H382.797L384.731 581.364H386.327L383.18 590.019C383.034 590.417 382.848 590.753 382.623 591.028C382.398 591.307 382.129 591.516 381.818 591.655C381.506 591.794 381.145 591.864 380.734 591.864ZM387.565 589V587.981L391.701 582.726V582.656H387.699V581.364H393.556V582.447L389.578 587.638V587.707H393.695V589H387.565ZM398.521 589.154C397.769 589.154 397.121 588.993 396.577 588.672C396.037 588.347 395.619 587.891 395.324 587.305C395.033 586.715 394.887 586.024 394.887 585.232C394.887 584.449 395.033 583.76 395.324 583.163C395.619 582.567 396.03 582.101 396.557 581.766C397.087 581.432 397.707 581.264 398.417 581.264C398.847 581.264 399.265 581.335 399.669 581.478C400.074 581.621 400.437 581.844 400.758 582.149C401.08 582.454 401.333 582.85 401.519 583.337C401.704 583.821 401.797 584.41 401.797 585.102V585.629H395.727V584.516H400.341C400.341 584.125 400.261 583.778 400.102 583.477C399.943 583.172 399.719 582.931 399.431 582.756C399.146 582.58 398.811 582.492 398.426 582.492C398.009 582.492 397.644 582.595 397.333 582.8C397.025 583.003 396.786 583.268 396.617 583.596C396.451 583.921 396.368 584.274 396.368 584.655V585.525C396.368 586.035 396.458 586.469 396.637 586.827C396.819 587.185 397.073 587.459 397.397 587.648C397.722 587.833 398.102 587.926 398.536 587.926C398.818 587.926 399.074 587.886 399.306 587.807C399.538 587.724 399.739 587.601 399.908 587.439C400.077 587.277 400.206 587.076 400.296 586.837L401.703 587.091C401.59 587.505 401.388 587.868 401.096 588.18C400.808 588.488 400.445 588.728 400.007 588.901C399.573 589.07 399.078 589.154 398.521 589.154Z" fill="#323E64"/>
<path d="M65.5 372.5H82.5L174.5 490.5" stroke="#778BCE" stroke-linecap="round"/>
<path d="M255 70H272L350.5 193.5" stroke="#778BCE" stroke-linecap="round"/>
<path d="M416 562.5H433L480 488" stroke="#778BCE" stroke-linecap="round"/>
<path d="M706 554H689L581 407.5" stroke="#778BCE" stroke-linecap="round"/>
<path d="M892 514H875L745.5 348.5" stroke="#778BCE" stroke-linecap="round"/>
<path d="M578 9H595L673.5 132.5" stroke="#778BCE" stroke-linecap="round"/>
<path d="M818 236.5L877.5 306.5H893.5" stroke="#778BCE" stroke-linecap="round"/>
<path d="M844 149H903.5H919.5" stroke="#778BCE" stroke-linecap="round"/>
<defs>
<linearGradient id="paint0_linear_54_6993" x1="387.737" y1="374.694" x2="605.363" y2="248.98" gradientUnits="userSpaceOnUse">
<stop stop-color="white"/>
<stop offset="0.885417" stop-color="#1D1D1D" stop-opacity="0.114583"/>
<stop offset="1" stop-color="white" stop-opacity="0"/>
</linearGradient>
<linearGradient id="paint1_linear_54_6993" x1="497.892" y1="313.191" x2="681.067" y2="207.378" gradientUnits="userSpaceOnUse">
<stop stop-color="white"/>
<stop offset="0.885417" stop-color="#1D1D1D" stop-opacity="0.114583"/>
<stop offset="1" stop-color="white" stop-opacity="0"/>
</linearGradient>
<linearGradient id="paint2_linear_54_6993" x1="607.356" y1="252.431" x2="750.199" y2="169.916" gradientUnits="userSpaceOnUse">
<stop stop-color="white"/>
<stop offset="0.885417" stop-color="#1D1D1D" stop-opacity="0.114583"/>
<stop offset="1" stop-color="white" stop-opacity="0"/>
</linearGradient>
<linearGradient id="paint3_linear_54_6993" x1="693.261" y1="205.207" x2="796.612" y2="145.505" gradientUnits="userSpaceOnUse">
<stop stop-color="white"/>
<stop offset="0.885417" stop-color="#1D1D1D" stop-opacity="0.114583"/>
<stop offset="1" stop-color="white" stop-opacity="0"/>
</linearGradient>
<linearGradient id="paint4_linear_54_6993" x1="759.637" y1="168.795" x2="831.059" y2="127.537" gradientUnits="userSpaceOnUse">
<stop stop-color="white"/>
<stop offset="0.885417" stop-color="#1D1D1D" stop-opacity="0.114583"/>
<stop offset="1" stop-color="white" stop-opacity="0"/>
</linearGradient>
<linearGradient id="paint5_linear_54_6993" x1="945.152" y1="66.0612" x2="127.729" y2="534.899" gradientUnits="userSpaceOnUse">
<stop stop-color="white"/>
<stop offset="0.963383" stop-color="white" stop-opacity="0"/>
</linearGradient>
</defs>
</svg>
