<svg width="1400" height="800" viewBox="0 0 1400 800" fill="none" xmlns="http://www.w3.org/2000/svg">
<rect width="1400" height="800" fill="#0F1424"/>
<circle cx="349" cy="355" r="2" fill="#4E5A81" fill-opacity="0.6"/>
<circle cx="234" cy="299" r="2" fill="#4E5A81" fill-opacity="0.6"/>
<circle cx="264" cy="218" r="2" fill="#4E5A81" fill-opacity="0.4"/>
<circle cx="75" cy="256" r="2" fill="#4E5A81" fill-opacity="0.6"/>
<circle cx="92" cy="256" r="2" fill="#4E5A81" fill-opacity="0.4"/>
<circle cx="88" cy="218" r="2" fill="#4E5A81" fill-opacity="0.6"/>
<circle cx="463" cy="287" r="2" fill="#4E5A81" fill-opacity="0.4"/>
<circle cx="361" cy="414" r="2" fill="#4E5A81" fill-opacity="0.6"/>
<circle cx="141" cy="518" r="2" fill="#4E5A81" fill-opacity="0.6"/>
<circle cx="64" cy="590" r="2" fill="#4E5A81" fill-opacity="0.6"/>
<circle cx="104" cy="344" r="2" fill="#4E5A81" fill-opacity="0.6"/>
<circle cx="183" cy="336" r="2" fill="#4E5A81" fill-opacity="0.4"/>
<circle cx="778" cy="756" r="2" fill="#4E5A81" fill-opacity="0.6"/>
<circle cx="744" cy="583" r="2" fill="#4E5A81" fill-opacity="0.6"/>
<circle cx="953" cy="579" r="2" fill="#4E5A81" fill-opacity="0.5"/>
<circle cx="1018" cy="448" r="2" fill="#4E5A81" fill-opacity="0.6"/>
<circle cx="1067" cy="560" r="2" fill="#4E5A81" fill-opacity="0.6"/>
<circle cx="1048" cy="508" r="2" fill="#4E5A81" fill-opacity="0.4"/>
<circle cx="1166" cy="501" r="2" fill="#4E5A81" fill-opacity="0.6"/>
<circle cx="701" cy="389" r="2" fill="#4E5A81" fill-opacity="0.4"/>
<circle cx="765" cy="289" r="2" fill="#4E5A81" fill-opacity="0.6"/>
<circle cx="850" cy="452" r="2" fill="#4E5A81" fill-opacity="0.6"/>
<circle cx="884" cy="321" r="2" fill="#4E5A81" fill-opacity="0.6"/>
<circle cx="1022" cy="97" r="2" fill="#4E5A81" fill-opacity="0.6"/>
<circle cx="1148" cy="120" r="2" fill="#4E5A81" fill-opacity="0.6"/>
<circle cx="654" cy="134" r="2" fill="#4E5A81" fill-opacity="0.2"/>
<circle cx="654" cy="99" r="2" fill="#4E5A81" fill-opacity="0.2"/>
<circle cx="553" cy="107" r="2" fill="#4E5A81" fill-opacity="0.6"/>
<circle cx="565" cy="214" r="2" fill="#4E5A81" fill-opacity="0.2"/>
<circle cx="1201" cy="202" r="2" fill="#4E5A81" fill-opacity="0.6"/>
<circle cx="1317" cy="398" r="2" fill="#4E5A81" fill-opacity="0.6"/>
<circle cx="1317" cy="510" r="2" fill="#4E5A81" fill-opacity="0.6"/>
<circle cx="1290" cy="520" r="2" fill="#4E5A81" fill-opacity="0.4"/>
<circle cx="1290" cy="611" r="2" fill="#4E5A81" fill-opacity="0.6"/>
<circle cx="1225" cy="680" r="2" fill="#4E5A81" fill-opacity="0.4"/>
<circle cx="1081" cy="752" r="2" fill="#4E5A81" fill-opacity="0.6"/>
<circle cx="1071" cy="706" r="2" fill="#4E5A81" fill-opacity="0.6"/>
<circle cx="986" cy="754" r="2" fill="#4E5A81" fill-opacity="0.5"/>
<circle cx="934" cy="719" r="2" fill="#4E5A81" fill-opacity="0.5"/>
<circle cx="481" cy="766" r="2" fill="#4E5A81" fill-opacity="0.6"/>
<circle cx="499" cy="495" r="2" fill="#4E5A81" fill-opacity="0.4"/>
<circle cx="485" cy="391" r="2" fill="#4E5A81" fill-opacity="0.4"/>
<circle cx="639" cy="454" r="2" fill="#4E5A81" fill-opacity="0.4"/>
<circle cx="594" cy="306" r="2" fill="#4E5A81" fill-opacity="0.4"/>
<circle cx="724" cy="48" r="2" fill="#4E5A81" fill-opacity="0.2"/>
</svg>
