<svg width="246" height="35" viewBox="0 0 246 35" fill="none" xmlns="http://www.w3.org/2000/svg">
<path d="M9.19515 0.734076C17.5032 0.734076 21.6572 3.96967 21.6572 10.4408C21.6572 13.7944 20.5029 16.3812 18.1941 18.2012C15.9023 20.0212 12.6245 20.9312 8.36097 20.9312H4.44287V34H0.575329V0.734076H9.19515ZM4.44287 4.09605V17.5945H7.93124C11.3354 17.5945 13.8126 17.0468 15.363 15.9515C16.8965 14.8392 17.6633 13.1203 17.6633 10.7947C17.6633 8.45231 16.9387 6.75025 15.4894 5.68857C14.0401 4.62689 11.7988 4.09605 8.76542 4.09605H4.44287ZM30.9012 29.9808C28.2386 26.9643 26.9073 22.7428 26.9073 17.3165C26.9073 11.8733 28.2386 7.66869 30.9012 4.70273C33.5807 1.71992 37.3387 0.228512 42.1753 0.228512C47.0287 0.228512 50.7951 1.7452 53.4746 4.77856C56.1709 7.79508 57.519 11.9744 57.519 17.3165C57.519 22.6417 56.1709 26.8295 53.4746 29.8797C50.7782 32.9299 47.0034 34.455 42.15 34.455C37.3134 34.455 33.5639 32.9636 30.9012 29.9808ZM50.6181 7.12942C48.7476 4.82069 45.967 3.66633 42.2764 3.66633C38.6026 3.66633 35.8052 4.82912 33.8841 7.1547C31.9629 9.48028 31.0024 12.8844 31.0024 17.367C31.0024 21.8328 31.9629 25.2369 33.8841 27.5794C35.8052 29.905 38.6026 31.0677 42.2764 31.0677C45.9501 31.0677 48.7223 29.9134 50.5929 27.6047C52.4803 25.2791 53.424 21.8665 53.424 17.367C53.424 12.8507 52.4887 9.43815 50.6181 7.12942ZM68.7983 4.12133V16.8362H74.1067C76.8199 16.8362 78.8169 16.3054 80.0976 15.2437C81.3784 14.1651 82.0188 12.5305 82.0188 10.3397C82.0188 8.14897 81.37 6.56488 80.0724 5.58746C78.7747 4.61004 76.6935 4.12133 73.8287 4.12133H68.7983ZM68.7983 20.1729V34H64.9308V0.734076H74.0562C78.1175 0.734076 81.1256 1.51769 83.0804 3.08493C85.0353 4.63532 86.0127 6.98618 86.0127 10.1375C86.0127 14.5527 83.7882 17.5271 79.3393 19.0607L88.3636 34H83.7882L75.7245 20.1729H68.7983ZM103.977 4.17189V34H100.109V4.17189H89.5685V0.734076H114.518V4.17189H103.977ZM123.388 19.7937V34H119.521V0.734076H138.049V4.17189H123.388V16.3559H137.165V19.7937H123.388ZM145.794 29.9808C143.131 26.9643 141.8 22.7428 141.8 17.3165C141.8 11.8733 143.131 7.66869 145.794 4.70273C148.473 1.71992 152.231 0.228512 157.068 0.228512C161.921 0.228512 165.688 1.7452 168.367 4.77856C171.063 7.79508 172.412 11.9744 172.412 17.3165C172.412 22.6417 171.063 26.8295 168.367 29.8797C165.671 32.9299 161.896 34.455 157.043 34.455C152.206 34.455 148.456 32.9636 145.794 29.9808ZM165.511 7.12942C163.64 4.82069 160.86 3.66633 157.169 3.66633C153.495 3.66633 150.698 4.82912 148.777 7.1547C146.856 9.48028 145.895 12.8844 145.895 17.367C145.895 21.8328 146.856 25.2369 148.777 27.5794C150.698 29.905 153.495 31.0677 157.169 31.0677C160.843 31.0677 163.615 29.9134 165.485 27.6047C167.373 25.2791 168.317 21.8665 168.317 17.367C168.317 12.8507 167.381 9.43815 165.511 7.12942ZM198.352 34H179.823V0.734076H183.691V30.4863H198.352V34ZM207.861 34H203.993V0.734076H207.861V34ZM219.231 29.9808C216.569 26.9643 215.237 22.7428 215.237 17.3165C215.237 11.8733 216.569 7.66869 219.231 4.70273C221.911 1.71992 225.669 0.228512 230.505 0.228512C235.359 0.228512 239.125 1.7452 241.805 4.77856C244.501 7.79508 245.849 11.9744 245.849 17.3165C245.849 22.6417 244.501 26.8295 241.805 29.8797C239.108 32.9299 235.333 34.455 230.48 34.455C225.644 34.455 221.894 32.9636 219.231 29.9808ZM238.948 7.12942C237.078 4.82069 234.297 3.66633 230.606 3.66633C226.933 3.66633 224.135 4.82912 222.214 7.1547C220.293 9.48028 219.332 12.8844 219.332 17.367C219.332 21.8328 220.293 25.2369 222.214 27.5794C224.135 29.905 226.933 31.0677 230.606 31.0677C234.28 31.0677 237.052 29.9134 238.923 27.6047C240.81 25.2791 241.754 21.8665 241.754 17.367C241.754 12.8507 240.819 9.43815 238.948 7.12942Z" fill="#95A4D3"/>
</svg>
